<?xml version='1.0' encoding='utf-8'?>
<svg xmlns="http://www.w3.org/2000/svg" viewBox="0 0 1024 1280"> <path d="m0 0h281.66c1.979 4.851 3.705 9.4018 4.414 14.633 2.172 16.028-1.758 35.85 17.112 43.658 13.18 5.4539 33.429 2.2573 40.123 18.354 1.723 4.1431 2.16 9.5563 2.59 13.992 2.152 22.213 2.522 33.542 24.562 43.95 14.976 7.073 37.022 7.161 43.472 25.326 7.799 21.965-19.516 55.412 10.748 69.906 12.744 6.103 27.1 7.765 32.474 23.035 8.203 23.306-15.124 42.917-11.971 65.902 2.117 15.43 13.317 28.309 18.13 42.927-30.393-4.556-50.271-22.792-67.811-46.479-25.505-34.446-44.602-92.774-92.927-100.12-18.294-2.684-36.899 2.104-51.624 13.285-5.512 4.104-10.371 8.82-14.878 13.993-10.886-20.466-34.658-43.478-56.752-50.304-36.398-11.245-82.936 4.106-117.81 14.83-18.184-13.498-38.346-24.37-61.504-25.2v-181.69z" fill="#9EABDC"/> <path d="m281.66 0h35.72c3.773 11.453 7.389 21.474 18.863 27.204 12.151 6.0688 21.106 6.1461 26.042 20.698 3.581 10.56 3.221 29.69 14.537 35.266 5.349 2.6355 13.45 2.2373 18.91 0.0607 5.379-2.1446 8.919-7.0687 11.058-12.284 2.878-7.0141 2.177-15.331-0.781-22.214-3.305-7.6913-9.026-14.286-5.666-23.082 3.502-9.1689 10.172-15.806 12.991-25.649h48.223c-0.858 6.6378-0.856 11.687 3.365 17.348 5.75 7.7106 14.777 10.933 17.655 20.944 1.416 4.9248 1.432 23.34 7.259 24.329 5.054 0.858 10.317-2.0444 14.121-5.1255 6.482-5.2493 11.707-13.087 12.57-21.508 0.968-9.4538-4.378-16.504-5.371-25.417-0.392-3.5117 0.196-7.0941 0.667-10.571h52.902c2.97 9.5652 9.574 25.024 4.538 34.526-3.872 7.3046-13.529 17.558-11.186 26.458 0.731 2.7795 2.904 4.522 5.366 5.7951 2.373 1.2275 4.52 1.2035 7.014 0.2324 7.131-2.7768 15.322-13.146 21.725-18.119 5.766-4.4772 12.837-8.0239 18.146-12.941 2.554-2.3658 4.363-5.0618 5.6-8.3061 3.285-8.613 4.318-18.508 5.304-27.645h71.627c-4.369 6.5858-9.409 12.632-13.649 19.319-15.591 24.582-17.422 27.28-45.923 34.923-6.879 1.8447-14.905 3.7519-20.499 8.3779-8.963 7.4123-8.422 20.182-14.657 29.39-3.893 5.749-9.411 9.6582-14.918 13.716-16.066 11.842-23.051 22.008-18.895 42.521 3.982 19.653 17.078 43.311 4.814 62.19-5.159 7.942-12.833 13.765-17.554 22.172-5.101 9.087-3.027 16.497-6.112 25.363-4.706 13.526-19.785 25.798-16.685 41.522 1.006 5.104 3.553 10.016 3.998 15.218 1.062 12.436-11.475 27.694-16.891 38.395-1.641 3.244-2.763 6.678-3.857 10.137-3.592 14.413 4.221 25.717 10.739 37.737-2.225 0.191-4.572 0.246-6.738 0.794-10.085 1.204-20.326 3.034-30.461 3.513-4.471 0.956-10.059 0.322-14.617-8e-3l-3.47-0.634c-13.164-2.743-30.059-8.001-42.336 0.013-5.465 3.567-9.826 8.662-13.835 13.742-15.019 19.025-27.778 39.644-43.994 57.748-9.576 10.69-21.34 18.982-31.199 29.266l-3.5 2.999c-5.742-0.493-11.831-3.002-17.383-4.607-7.43-2.144-14.947-3.973-22.532-5.483-19.073-3.657-38.266-4.158-57.42-6.658-4.05-2.869-7.564-7.108-11.104-10.607-6.895-6.818-14.162-13.462-22.245-18.866-5.531-3.699-11.76-6.983-17.896-9.532-5.006-2.08-11.548-3.655-15.86-6.916 23.634-6.622 47.97-12.767 72.389-15.469-22.261-17.903-54.916-32.196-83.022-37.514-39.01-7.381-77.324-1.035-110.29 21.521 3.9309-15.777 1.7441-29.926-3.941-44.833 0.2-0.462 0.4131-0.918 0.6452-1.365 8.0933-15.559 31.848-30.724 48.086-35.68 17.514-5.346 32.458-3.899 49.048 3.525 6.36 2.846 12.576 5.971 19.37 7.688 11.58 2.926 22.744 1.966 33.857 7.636 11.648 5.943 20.518 16.008 31.97 22.009 12.643 6.625 26.885 2.923 39.713-1.189-6.457-13.949-18.015-27.05-27.181-39.341-13.021-17.462-23.14-36.885-47.973-34.635-6.285 0.569-12.405 2.332-18.56 3.643-2.971 0.633-8.693 1.532-11.552 0.262-6.425-2.856-11.917-15.461-20.186-19.809-9.225-4.851-20.121-6.731-30.473-6.251-37.255 1.725-41.305 28.666-65.966 47.593-7.9799 6.124-16.906 8.902-26.354 11.872-5.4208-4.749-11.382-8.843-17.761-12.198v-141.52c23.158 0.83 43.32 11.702 61.504 25.2 34.878-10.724 81.416-26.075 117.81-14.83 22.094 6.826 45.866 29.838 56.752 50.304 4.507-5.173 9.366-9.889 14.878-13.993 14.725-11.181 33.33-15.969 51.624-13.285 48.325 7.343 67.422 65.671 92.927 100.12 17.54 23.687 37.418 41.923 67.811 46.479-4.813-14.618-16.013-27.497-18.13-42.927-3.153-22.985 20.174-42.596 11.971-65.902-5.374-15.27-19.73-16.932-32.474-23.035-30.264-14.494-2.949-47.941-10.748-69.906-6.45-18.165-28.496-18.253-43.472-25.326-22.04-10.408-22.41-21.737-24.562-43.95-0.43-4.4356-0.867-9.8488-2.59-13.992-6.694-16.097-26.943-12.9-40.123-18.354-18.87-7.8084-14.94-27.63-17.112-43.658-0.709-5.2314-2.435-9.7822-4.414-14.633zm262.25 115c-8.457 4.78-14.576 12.043-17.214 21.502-2.638 9.461 0.967 15.695 5.542 23.617 2.09 3.618 4.076 8.683 6.733 11.77 2.288 1.388 4.025 2.695 6.807 1.878 4.073-1.198 6.558-5.766 8.313-9.357 0.418-0.846 0.804-1.707 1.159-2.582-0.46-6.639-2.871-12.874-3.84-19.414-1.215-8.193 1.546-19.148-2.236-26.517-1.735-1.33-3.109-1.071-5.264-0.897zm-17.428 80.731c-7.255 1.551-12.589 4.512-16.667 10.902-6.772 10.614-5.743 23.534-6.676 35.556-0.474 6.048-1.296 12.064-2.461 18.018 5.414 1.152 10.731 1.767 16.234 2.274 1.539-0.325 2.788-0.377 3.789-1.769 3.301-4.59 5.219-13.952 7.514-19.473 3.638-8.75 9.524-16.688 12.267-25.814 0.92-3.061 0.922-6.981 0.177-10.09-0.573-2.389-1.626-4.383-2.904-6.461-3.919-2.239-6.729-3.203-11.273-3.143z" fill="#FEFEFE"/> <path d="m317.38 0h95.954c-2.819 9.8434-9.489 16.48-12.991 25.649-3.36 8.7957 2.361 15.39 5.666 23.082 2.958 6.8833 3.659 15.2 0.781 22.214-2.139 5.2153-5.679 10.139-11.058 12.284-5.46 2.1766-13.561 2.5748-18.91-0.0607-11.316-5.5759-10.956-24.706-14.537-35.266-4.936-14.552-13.891-14.63-26.042-20.698-11.474-5.7308-15.09-15.751-18.863-27.204z" fill="#FAE6D3"/> <path d="m461.55 0h50.266c-0.471 3.4768-1.059 7.0592-0.667 10.571 0.993 8.9125 6.339 15.963 5.371 25.417-0.863 8.4212-6.088 16.259-12.57 21.508-3.804 3.0811-9.067 5.9835-14.121 5.1255-5.827-0.9893-5.843-19.404-7.259-24.329-2.878-10.011-11.905-13.234-17.655-20.944-4.221-5.6612-4.223-10.711-3.365-17.348z" fill="#FAE6D3"/> <path d="m564.72 0h56.507c-0.986 9.1369-2.019 19.032-5.304 27.645-1.237 3.2443-3.046 5.9403-5.6 8.3061-5.309 4.9173-12.38 8.464-18.146 12.941-6.403 4.973-14.594 15.342-21.725 18.119-2.494 0.9711-4.641 0.9951-7.014-0.2324-2.462-1.2731-4.635-3.0156-5.366-5.7951-2.343-8.9005 7.314-19.154 11.186-26.458 5.036-9.5018-1.568-24.96-4.538-34.526z" fill="#FAE6D3"/> <path d="m692.86 0h323.68c-7.21 10.673-17.483 22.37-30.852 24.828-5.872 1.08-12.278 0.3263-18.222 0.2085-10.364-0.2713-20.709 1.0228-30.686 3.8387-18.489 5.2883-34.324 14.586-49.713 25.939-17.068 12.592-33.48 27.618-54.214 33.831-15.788 4.7306-32.852 2.5117-48.625-1.2281-6.627-1.5712-13.159-3.4736-19.962-4.1314-36.329-3.5127-82.71 18.069-109.64 41.707-5.846 5.132-10.87 10.898-15.71 16.958-4.855 6.241-12.461 17.059-11.527 25.297 0.329 2.908 2.01 5.345 4.301 7.094 12.894 9.842 56.092 4.434 72.397 3.954 12.138-0.358 25.536-0.617 37.402 2.146 22.316 5.196 34.064 20.387 59.22 16.204 22.174-3.687 58.193-22.169 78.645-7.162 3.209 2.355 4.952 5.665 5.453 9.584 1.247 9.756-2.066 17.763 7.028 24.978 13.237 10.5 37.691 13.025 54.023 14.97 15.543 2.709 31.699 4.612 47.438 5.75 10.143 0.733 20.683 0.718 30.703 2.15v97.264c-38.629 2.628-84.117 20.025-110.08 49.766-1.005 1.156-1.99 2.328-2.956 3.516-0.21-0.054-0.419-0.111-0.629-0.164-10.221-2.56-57.297-4.395-64.662-0.052-9.973-2.795-19.972-5.495-29.995-8.1l4.411 5.839c-18.561 0.277-39.428-2.902-56.932-9.134-6.758-2.406-13.027-6.276-19.626-9.11-12.093-5.195-24.917-8.838-37.707-11.849-49.223-11.207-99.965-14.159-150.16-8.737-14.154 1.534-29.848 6.036-43.045 7.05-0.197 0.015-0.394 0.026-0.591 0.039 1.094-3.459 2.216-6.893 3.857-10.137 5.416-10.701 17.953-25.959 16.891-38.395-0.445-5.202-2.992-10.114-3.998-15.218-3.1-15.724 11.979-27.996 16.685-41.522 3.085-8.866 1.011-16.276 6.112-25.363 4.721-8.407 12.395-14.23 17.554-22.172 12.264-18.879-0.832-42.537-4.814-62.19-4.156-20.513 2.829-30.679 18.895-42.521 5.507-4.058 11.025-7.9672 14.918-13.716 6.235-9.2082 5.694-21.978 14.657-29.39 5.594-4.626 13.62-6.5332 20.499-8.3779 28.501-7.6425 30.332-10.341 45.923-34.923 4.24-6.6863 9.28-12.733 13.649-19.319zm75.293 275.23c-8.514 1.084-16.412 3.203-21.917 10.29-5.021 6.464-5.495 14.803-5.492 22.66-7.71-2.467-15.761-3.578-23.232 0.339-4.554 2.388-7.617 5.838-10.769 9.812-3.658-3.881-6.877-6.496-12.509-6.733-7.169-0.301-14.685 3.852-19.726 8.69-3.513 3.371-7.716 9.114-7.845 14.147-0.03 1.162 0.347 1.844 0.939 2.81 4.999 2.389 67.582 0.848 79.012 1.211 19.208 0.206 38.395-0.25 57.598-0.195 10.02 0.028 34.757 1.708 43.047-0.546 1.687-2.058 1.958-5.783 1.638-8.346-0.307-2.454-1.288-4.445-3.355-5.851-3.083-2.097-6.555-2.323-10.146-2.313-1.88-6.031-3.961-11.457-9.801-14.687-4.31-2.383-9.445-2.612-14.091-1.1-2.625 0.854-4.962 2.599-7.184 4.2-0.351-10.527-1.698-18.387-9.771-25.87-7.635-7.077-16.124-9.044-26.283-8.529-0.038 2e-3 -0.075 7e-3 -0.113 0.011z" fill="#9EABDC"/> <path d="m1016.5 0h7.46v246.92c-10.02-1.432-20.56-1.417-30.703-2.15-15.739-1.138-31.895-3.041-47.438-5.75-24.291-22.049-4.173-58.433-19.077-73.817-2.129-2.197-4.8-3.867-7.597-5.076-26.533-11.462-75.471 10.506-104.74 11.722-15.585 0.647-27.747-2.067-38.885-13.227-3.94-3.947-7.707-7.876-12.783-10.358-20.617-10.077-97.055-6.217-123.86-6.309 4.84-6.06 9.864-11.826 15.71-16.958 26.929-23.638 73.31-45.22 109.64-41.707 6.803 0.6578 13.335 2.5602 19.962 4.1314 15.773 3.7398 32.837 5.9587 48.625 1.2281 20.734-6.2128 37.146-21.239 54.214-33.831 15.389-11.353 31.224-20.651 49.713-25.939 9.977-2.8159 20.322-4.11 30.686-3.8387 5.944 0.1178 12.35 0.8715 18.222-0.2085 13.369-2.4588 23.642-14.155 30.852-24.828z" fill="#FAE6D3"/> <path d="m538.97 171.88c-2.657-3.087-4.643-8.152-6.733-11.77-4.575-7.922-8.18-14.156-5.542-23.617 2.638-9.459 8.757-16.722 17.214-21.502 2.155-0.174 3.529-0.433 5.264 0.897 3.782 7.369 1.021 18.324 2.236 26.517 0.969 6.54 3.38 12.775 3.84 19.414-0.355 0.875-0.741 1.736-1.159 2.582-1.755 3.591-4.24 8.159-8.313 9.357-2.782 0.817-4.519-0.49-6.807-1.878z" fill="#FAE6D3"/> <path d="m945.86 239.02c-16.332-1.945-40.786-4.47-54.023-14.97-9.094-7.215-5.781-15.222-7.028-24.978-0.501-3.919-2.244-7.229-5.453-9.584-20.452-15.007-56.471 3.475-78.645 7.162-25.156 4.183-36.904-11.008-59.22-16.204-11.866-2.763-25.264-2.504-37.402-2.146-16.305 0.48-59.503 5.888-72.397-3.954-2.291-1.749-3.972-4.186-4.301-7.094-0.934-8.238 6.672-19.056 11.527-25.297 26.804 0.092 103.24-3.768 123.86 6.309 5.076 2.482 8.843 6.411 12.783 10.358 11.138 11.16 23.3 13.874 38.885 13.227 29.27-1.216 78.208-23.184 104.74-11.722 2.797 1.209 5.468 2.879 7.597 5.076 14.904 15.384-5.214 51.768 19.077 73.817z" fill="#FEFEFE"/> <path d="m500.67 260.2c1.165-5.954 1.987-11.97 2.461-18.018 0.933-12.022-0.096-24.942 6.676-35.556 4.078-6.39 9.412-9.351 16.667-10.902 4.544-0.06 7.354 0.904 11.273 3.143 1.278 2.078 2.331 4.072 2.904 6.461 0.745 3.109 0.743 7.029-0.177 10.09-2.743 9.126-8.629 17.064-12.267 25.814-2.295 5.521-4.213 14.883-7.514 19.473-1.001 1.392-2.25 1.444-3.789 1.769-5.503-0.507-10.82-1.122-16.234-2.274z" fill="#FAE6D3"/> <path d="m740.74 308.18c-3e-3 -7.857 0.471-16.196 5.492-22.66 5.505-7.087 13.403-9.206 21.917-10.29 0.038-4e-3 0.075-9e-3 0.113-0.011 10.159-0.515 18.648 1.452 26.283 8.529 8.073 7.483 9.42 15.343 9.771 25.87 2.222-1.601 4.559-3.346 7.184-4.2 4.646-1.512 9.781-1.283 14.091 1.1 5.84 3.23 7.921 8.656 9.801 14.687 3.591-0.01 7.063 0.216 10.146 2.313 2.067 1.406 3.048 3.397 3.355 5.851 0.32 2.563 0.049 6.288-1.638 8.346-8.29 2.254-33.027 0.574-43.047 0.546-19.203-0.055-38.39 0.401-57.598 0.195-11.43-0.363-74.013 1.178-79.012-1.211-0.592-0.966-0.969-1.648-0.939-2.81 0.129-5.033 4.332-10.776 7.845-14.147 5.041-4.838 12.557-8.991 19.726-8.69 5.632 0.237 8.851 2.852 12.509 6.733 3.152-3.974 6.215-7.424 10.769-9.812 7.471-3.917 15.522-2.806 23.232-0.339z" fill="#FEFEFE"/> <path d="m17.761 335.41c9.4482-2.97 18.374-5.748 26.354-11.872 24.661-18.927 28.711-45.868 65.966-47.593 10.352-0.48 21.248 1.4 30.473 6.251 8.269 4.348 13.761 16.953 20.186 19.809 2.859 1.27 8.581 0.371 11.552-0.262 6.155-1.311 12.275-3.074 18.56-3.643 24.833-2.25 34.952 17.173 47.973 34.635 9.166 12.291 20.724 25.392 27.181 39.341-12.828 4.112-27.07 7.814-39.713 1.189-11.452-6.001-20.322-16.066-31.97-22.009-11.113-5.67-22.277-4.71-33.857-7.636-6.794-1.717-13.01-4.842-19.37-7.688-16.59-7.424-31.534-8.871-49.048-3.525-16.238 4.956-39.992 20.121-48.086 35.68-0.2321 0.447-0.4452 0.903-0.6452 1.365-5.2047-12.891-15.355-24.736-25.555-34.042z" fill="#FAE6D3"/> <path d="m0 323.21c6.379 3.355 12.34 7.449 17.761 12.198 10.201 9.306 20.351 21.151 25.555 34.042 5.6851 14.907 7.8719 29.056 3.941 44.833 32.961-22.556 71.275-28.902 110.29-21.521 28.106 5.318 60.761 19.611 83.022 37.514-24.419 2.702-48.755 8.847-72.389 15.469-9.519 2.42-27.227 5.852-35.548 9.321 30.463 20.907 47.676 69.098 54.165 103.99 1.346 7.485 2.457 15.011 3.331 22.567-21.737-19.188-44.907-44.298-68.503-60.338-8.501-5.78-17.749-10.421-26.966-14.931 1.396 7.396 9.5824 22.362 12.888 30.264 9.164 21.902 16.499 45.918 19.611 69.472 1.976 11.708 3.389 23.406 4.688 35.203 1.439 26.259 2.518 67.435-5.368 92.532-6.874-7.894-11.052-19.113-15.39-28.577-7.092-15.478-13.684-31.6-21.545-46.691-2.3698-6.213-5.569-12.254-8.3963-18.275-6.3789-13.587-12.99-27.164-18.942-40.938-3.9475-9.134-8.0513-25.123-12.682-32.476 0.0426-8.802-2.2893-18.301-3.9001-26.954-2.3893-12.942-4.8849-25.865-7.4865-38.767-3.7766 8.067-5.2897 17.407-8.8346 25.728-0.1194 0.182-0.2408 0.363-0.3583 0.546-10.831 16.904-10.294 26.858-28.939 39.454v-71.679-78.335-93.654z" fill="#009492"/> <path d="m910.96 397.46c0.966-1.188 1.951-2.36 2.956-3.516 25.968-29.741 71.456-47.138 110.08-49.766v46.573c-14.87 12.797-28.248 30.387-37.145 47.866-2.419 4.751-3.562 11.805-6.641 15.884-27.462-12.127-54.495-26.515-82.566-37.076 3.358-7.394 8.232-13.706 13.311-19.965z" fill="#FEFEFE"/> <path d="m522.77 400.98c-6.518-12.02-14.331-23.324-10.739-37.737 0.197-0.013 0.394-0.024 0.591-0.039 13.197-1.014 28.891-5.516 43.045-7.05 50.191-5.422 100.93-2.47 150.16 8.737 12.79 3.011 25.614 6.654 37.707 11.849 6.599 2.834 12.868 6.704 19.626 9.11 17.504 6.232 38.371 9.411 56.932 9.134 5.298 6.81 10.719 13.522 16.261 20.135-6.126-0.687-12.224-1.622-18.402-1.639-19.854-0.057-39.327 7.316-54.746 19.717-3.413 2.745-6.643 5.75-9.897 8.682-22.107-11.558-36.816-12.124-60.77-4.654-27.44 8.557-51.801 24.776-71.841 45.222-5.144 5.249-9.616 11.101-14.636 16.454-2.389-1.778-4.254-4.346-6.182-6.604-2.735-4.086-6.418-7.746-9.59-11.513-4.177-5.005-8.174-10.158-11.986-15.447-7.409-10.194-14.714-20.464-21.914-30.807-4.795-6.97-9.333-14.243-14.522-20.923-2.422-3.118-5.204-7.382-8.879-9-5.803-2.555-10.618-2.881-16.952-2.833 2.166-0.548 4.513-0.603 6.738-0.794z" fill="#FAE6D3"/> <path d="m980.21 454.5c3.079-4.079 4.222-11.133 6.641-15.884 8.897-17.479 22.275-35.069 37.145-47.866v39.02 7.846 38.974 7.48 61.709 8.051 63.049c-12.39-16.795-24.919-31.944-33.572-51.204-3.792-8.44-6.01-17.571-9.845-25.947l-0.195-0.416-0.189-4.529c-1.722 3.315-2.749 6.966-4.116 10.442-3.708 9.428-8.024 20.116-13.931 28.385-8.872 12.956-16.588 26.579-25.789 39.383-18.959 26.385-40.637 51.277-62.294 75.475-9.563 10.907-20.941 19.935-32.508 28.61 1.367-2.938 2.61-6.119 4.235-8.913 3.142-9.472 7.542-18.842 11.437-28.052 11.942-28.451 24.271-56.738 36.985-84.853 7.493-16.178 16.32-32.088 23.088-48.535-25.508 13.316-54.289 17.224-82.731 16.997 18.904-24.073 43.397-43.107 70.577-57.129 9.789-5.05 20.043-9.297 30.034-13.944-2.809-1.719-6.677-2.666-9.771-3.966-6.283-2.624-12.41-5.605-18.352-8.929-28.026-15.919-49.758-40.704-70.718-64.637-5.542-6.613-10.963-13.325-16.261-20.135l-4.411-5.839c10.023 2.605 20.022 5.305 29.995 8.1 9.197 3.108 26.122 7.443 34.031 12.527 6.032 2.11 12.291 4.689 17.949 7.654 28.071 10.561 55.104 24.949 82.566 37.076z" fill="#009492"/> <path d="m845.67 397.25c7.365-4.343 54.441-2.508 64.662 0.052 0.21 0.053 0.419 0.11 0.629 0.164-5.079 6.259-9.953 12.571-13.311 19.965-5.658-2.965-11.917-5.544-17.949-7.654-7.909-5.084-24.834-9.419-34.031-12.527z" fill="#FAE6D3"/> <path d="m336.12 505.42c9.859-10.284 21.623-18.576 31.199-29.266 16.216-18.104 28.975-38.723 43.994-57.748 4.009-5.08 8.37-10.175 13.835-13.742 12.277-8.014 29.172-2.756 42.336-0.013l3.47 0.634c-3.084 12.328-7.003 54.458-3.396 66.024-1.786 8.177-3.463 16.432-5.836 24.461-4.809 16.275-19.237 56.032-33.595 65.008-1.224 0.765-1.577 0.693-2.917 0.473-2.315-2.632-2.044-7.735-1.839-11.066 0.43-6.973 1.834-13.785 2.581-20.716 4.139-16.185 8.327-34.366 7.853-51.178-5.821 7.754-11.091 15.392-15.968 23.771-8.248 14.172-29.409 60.492-43.962 63.198-1.551 0.288-3.181 0.069-4.459-0.904-1.994-1.515-2.779-4.027-3.054-6.42-0.439-3.822 0.942-7.439 2.212-10.967 4.372-8.537 7.809-17.842 11.787-26.592 6.027-13.259 12.559-26.278 18.53-39.565l-23.849 20.027c-7.951 5.728-18.768 13.352-29.166 11.536-3.966-0.693-6.925-2.599-9.144-5.935-0.383-0.577-0.338-0.515-0.612-1.02z" fill="#FB777C"/> <path d="m485.57 405.29c10.135-0.479 20.376-2.309 30.461-3.513 6.334-0.048 11.149 0.278 16.952 2.833 3.675 1.618 6.457 5.882 8.879 9 5.189 6.68 9.727 13.953 14.522 20.923 7.2 10.343 14.505 20.613 21.914 30.807 3.812 5.289 7.809 10.442 11.986 15.447 3.172 3.767 6.855 7.427 9.59 11.513-1.71 2.674-3.312 4.399-6.532 5.064-8.488 1.756-22.711-13.149-27.601-5.725-0.741 1.124-1.159 2.542-1.597 3.808-0.604 5.616-0.237 10.889 0.561 16.466 0.95 6.645 8.117 31.683 2.521 36.178-0.936 0.752-2.192 0.96-3.373 0.756-3.835-0.663-7.06-4.436-9.723-7.011-8.042-13.636-13.805-23.268-19.638-38.308-2.687-6.927-4.72-18.36-9.542-23.779-1.488-1.672-3.768-2.923-6.058-2.855-10.306 0.305-11.161 24.66-14.427 31.944-0.954 2.129-2.795 3.796-4.428 5.417-0.832-0.335-1.672-0.682-2.446-1.139-7.644-4.51-11.472-30.98-14.258-40.045-1.149-3.738-2.712-8.739-6.372-10.651-1.928 0.068-2.306 0.183-3.946 1.2-2.075 2.465-3.8 4.925-5.458 7.686-3.607-11.566 0.312-53.696 3.396-66.024 4.558 0.33 10.146 0.964 14.617 8e-3z" fill="#FDD0C1"/> <path d="m753.3 441.88c3.254-2.932 6.484-5.937 9.897-8.682 15.419-12.401 34.892-19.774 54.746-19.717 6.178 0.017 12.276 0.952 18.402 1.639 20.96 23.933 42.692 48.718 70.718 64.637 5.942 3.324 12.069 6.305 18.352 8.929 3.094 1.3 6.962 2.247 9.771 3.966-9.991 4.647-20.245 8.894-30.034 13.944-27.18 14.022-51.673 33.056-70.577 57.129 28.442 0.227 57.223-3.681 82.731-16.997-6.768 16.447-15.595 32.357-23.088 48.535-12.714 28.115-25.043 56.402-36.985 84.853-10.886-5.661-21.977-10.954-32.745-16.838-23.291-12.726-46.001-26.375-68.837-39.878-13.866-8.199-28.989-15.884-41.919-25.435 2.163-3.422 4.33-6.843 6.825-10.036 9.497-12.149 23.121-22.991 38.844-24.933 10.832 1.407 28.935 8.291 38.566 0.675 2.851-2.254 2.316-6.139 3.857-9.149 1.692-3.307 5.199-5.927 5.486-9.86 0.153-2.082-0.884-3.555-2.253-5.057-2.852-3.127-6.287-5.635-9.284-8.613-7.112-7.067-11.712-14.453-22.868-14.83-27.228-0.919-51.32 11.316-70.703 29.705-7.797 7.398-14.503 15.572-20.51 24.466-27.187-21.093-52.785-45.734-75.639-71.431 5.02-5.353 9.492-11.205 14.636-16.454 20.04-20.446 44.401-36.665 71.841-45.222 23.954-7.47 38.663-6.904 60.77 4.654z" fill="#FEFEFE"/> <path d="m132.63 455.07c8.321-3.469 26.029-6.901 35.548-9.321 4.312 3.261 10.854 4.836 15.86 6.916 6.136 2.549 12.365 5.833 17.896 9.532 8.083 5.404 15.35 12.048 22.245 18.866 3.54 3.499 7.054 7.738 11.104 10.607 19.154 2.5 38.347 3.001 57.42 6.658 7.585 1.51 15.102 3.339 22.532 5.483 5.552 1.605 11.641 4.114 17.383 4.607-19.75 18.229-41.776 34.639-63.139 50.941-13.892 10.601-28.195 22.343-43.08 31.514-7.551-4.011-83.62 10.067-94.258 13.218-1.725 0.511-3.367 1.226-4.985 2.006-3.112-23.554-10.447-47.57-19.611-69.472-3.306-7.902-11.492-22.868-12.888-30.264 9.2174 4.51 18.465 9.151 26.966 14.931 23.596 16.04 46.766 41.15 68.503 60.338-0.874-7.556-1.985-15.082-3.331-22.567-6.489-34.895-23.702-83.086-54.165-103.99z" fill="#FAE6D3"/> <path d="m473.01 463.62c1.64-1.017 2.018-1.132 3.946-1.2 3.66 1.912 5.223 6.913 6.372 10.651 2.786 9.065 6.614 35.535 14.258 40.045 0.774 0.457 1.614 0.804 2.446 1.139 1.633-1.621 3.474-3.288 4.428-5.417 3.266-7.284 4.121-31.639 14.427-31.944 2.29-0.068 4.57 1.183 6.058 2.855 4.822 5.419 6.855 16.852 9.542 23.779 5.833 15.04 11.596 24.672 19.638 38.308 2.663 2.575 5.888 6.348 9.723 7.011 1.181 0.204 2.437-4e-3 3.373-0.756 5.596-4.495-1.571-29.533-2.521-36.178-0.798-5.577-1.165-10.85-0.561-16.466 0.438-1.266 0.856-2.684 1.597-3.808 4.89-7.424 19.113 7.481 27.601 5.725 3.22-0.665 4.822-2.39 6.532-5.064 1.928 2.258 3.793 4.826 6.182 6.604 22.854 25.697 48.452 50.338 75.639 71.431-26.089 39.74-40.317 87.934-54.297 133.03-9.141 29.49-16.065 59.408-34.611 84.746-12.488 15.127-29.079 22.181-48.396 23.994-14.427 1.354-29.007-0.146-43.468 0.118-18.351 0.336-35.702 5.304-53.122 10.629-8.365-1.344-29.266 0.128-38.924 0.294-2.558-4.892-5.479-9.87-7.491-15-6.731-17.163 24.52-90.589 33.147-110.1 9.662-1.023 19.576-1.038 29.293-1.639-1.815-9.212-3.008-18.667-4.446-27.956-2.43-15.695-5.679-32.382-5.126-48.273 0.602-17.266 7.396-34.443 10.209-51.537 3.423-20.804 4.155-41.724 5.61-62.708 0.973-14.043 2.832-28.239 2.942-42.317z" fill="#9EABDC"/> <path d="m467.55 471.3c1.658-2.761 3.383-5.221 5.458-7.686-0.11 14.078-1.969 28.274-2.942 42.317-1.455 20.984-2.187 41.904-5.61 62.708-2.813 17.094-9.607 34.271-10.209 51.537-0.553 15.891 2.696 32.578 5.126 48.273 1.438 9.289 2.631 18.744 4.446 27.956-9.717 0.601-19.631 0.616-29.293 1.639-8.627 19.511-39.878 92.937-33.147 110.1 2.012 5.13 4.933 10.108 7.491 15-29.809 0.907-59.699 2.943-89.51 3.172-3.134-6.382-8.625-11.347-13.962-15.863 6.795-17.263 12.312-35.308 17.976-52.975 4.986-15.553 10.383-30.946 14.122-46.862-10.573-3.378-21-7.946-29.635-15.027 8.952-12.716 18.663-24.985 27.919-37.488 8.045-10.868 15.575-22.221 24.469-32.426 13.784-15.817 30.654-29.636 42.761-46.826 7.051-10.009 11.84-22.657 16.343-33.955 1.904-4.778 3.49-11.526 6.591-15.434-0.747 6.931-2.151 13.743-2.581 20.716-0.205 3.331-0.476 8.434 1.839 11.066 1.34 0.22 1.693 0.292 2.917-0.473 14.358-8.976 28.786-48.733 33.595-65.008 2.373-8.029 4.05-16.284 5.836-24.461z" fill="#5C57C5"/> <path d="m336.12 505.42c0.274 0.505 0.229 0.443 0.612 1.02 2.219 3.336 5.178 5.242 9.144 5.935 10.398 1.816 21.215-5.808 29.166-11.536-4.481 8.309-13.299 16.125-19.666 23.224-10.487 11.896-21.039 23.734-31.657 35.514-19.056 21.497-37.602 43.441-55.619 65.815-4.753 5.824-9.841 11.42-14.504 17.307 10.538-0.427 21.073-1.739 31.564-2.8 5.536-7.5 10.48-15.537 16.362-22.754 7.252-8.898 61.778-68.599 67.052-70.176-1.27 3.528-2.651 7.145-2.212 10.967 0.275 2.393 1.06 4.905 3.054 6.42 1.278 0.973 2.908 1.192 4.459 0.904 14.553-2.706 35.714-49.026 43.962-63.198 4.877-8.379 10.147-16.017 15.968-23.771 0.474 16.812-3.714 34.993-7.853 51.178-3.101 3.908-4.687 10.656-6.591 15.434-4.503 11.298-9.292 23.946-16.343 33.955-12.107 17.19-28.977 31.009-42.761 46.826-8.894 10.205-16.424 21.558-24.469 32.426-9.256 12.503-18.967 24.772-27.919 37.488 8.635 7.081 19.062 11.649 29.635 15.027-3.739 15.916-9.136 31.309-14.122 46.862-5.664 17.667-11.181 35.712-17.976 52.975-1.497-0.984-3.006-1.951-4.524-2.902-13.85-8.639-26.928-8.378-42.337-4.828-0.715 0.164-1.433 0.338-2.156 0.464-1.758 0.304-2.83 0.58-4.415-0.434-3.786-2.422-6.709-6.81-9.503-10.265-8.129-10.055-16.506-22.644-27.085-30.158-11.246-7.987-25.642-10.76-39.107-8.524-1.698 0.498-3.328 1.235-4.968 1.9-2.133-0.311-2.733-1.244-4.315-2.657-0.055-0.122-0.098-0.25-0.164-0.367-1.941-3.472-7.909-7.632-11.632-8.935-16.795-4.818-35.75 2.743-50.546 10.862-4.8731 2.725-9.5932 5.715-14.139 8.956-5.5538 3.905-18.594 16.183-25.71 14.094-5.0635-1.487-9.1178-7.343-13.578-10.142-0.0862-31.685 1.1102-63.351 0.6066-95.045 12.687-4.066 25.226-9.236 37.71-13.916 7.8607 15.091 14.453 31.213 21.545 46.691 4.338 9.464 8.516 20.683 15.39 28.577 7.886-25.097 6.807-66.273 5.368-92.532 8.809-4.652 18.354-8.439 27.386-12.708 22.982-10.862 46.538-22.781 67.169-37.719 14.885-9.171 29.188-20.913 43.08-31.514 21.363-16.302 43.389-32.712 63.139-50.941l3.5-2.999z" fill="#50319A"/> <path d="m375.04 500.83 23.849-20.027c-5.971 13.287-12.503 26.306-18.53 39.565-3.978 8.75-7.415 18.055-11.787 26.592-5.274 1.577-59.8 61.278-67.052 70.176-5.882 7.217-10.826 15.254-16.362 22.754-10.491 1.061-21.026 2.373-31.564 2.8 4.663-5.887 9.751-11.483 14.504-17.307 18.017-22.374 36.563-44.318 55.619-65.815 10.618-11.78 21.17-23.618 31.657-35.514 6.367-7.099 15.185-14.915 19.666-23.224z" fill="#5C57C5"/> <path d="m29.298 526.88c3.5449-8.321 5.058-17.661 8.8346-25.728 2.6016 12.902 5.0972 25.825 7.4865 38.767 1.6108 8.653 3.9427 18.152 3.9001 26.954 1.3778 35.23 1.4069 70.385 2.3111 105.6 0.5036 31.694-0.6928 63.36-0.6066 95.045-0.3567 9.9-0.5903 19.804-0.7007 29.71l-1.7591 41.118c-0.2986 5.161-0.3663 10.494-0.9357 15.624-2.9084 43.656-5.17 87.324-9.9011 130.83-2.1743 20.944-4.6025 41.854-7.2841 62.744-1.4404 11.45-3.6942 23.31-4.3425 34.81-0.8731 6.02-3.6386 34.4-5.7216 38.17-2.866-1.2-6.4336-5.27-8.1013-7.88-1.5126 2.18-10.698 13.07-12.477 13.5v-119c5.9331-18.804 9.0986-39.425 11.982-58.888 4.4911-29.31 7.6744-58.806 9.5406-88.4 1.6613-5.907 1.4284-13.74 1.9165-19.904 1.6403-17.857 2.4627-35.783 3.9234-53.654 0.4911-12.362 1.2621-24.672 1.5219-37.049 1.161-7.413 0.7825-15.624 1.0263-23.14l1.4498-46.508c1.3288-21.756 0.6077-44.062 0.2061-65.848-0.4962-28.967-1.2526-57.928-2.2693-86.881z" fill="#182B52"/> <path d="m759.4 563c-5.443-3.715-10.711-6.073-17.492-4.818-16.245 3.008-28.272 16.878-37.013 29.962-22.26 33.317-33.556 85.121-41.402 124.39-3.251 16.274-6.958 32.439-10.085 48.744-7.923 41.309-15.052 83.988-31.927 122.78 6.132 11.156 11.128 22.127 15.569 34.055 8.312 23.55 5.165 45.693 5.559 69.96 0.326 15.084 1.792 30.114 4.386 44.984 0.648 3.85 1.56 11.59 3.725 14.82 0.65 6.1 0.722 15.02 5.981 19.18 1.854 1.46 3.657 2.28 5.24 4.13-1.77 3.02-4.058 4.61-7.43 5.56-0.721 0.2-1.439-0.11-2.163-0.26-0.757-0.98-1.486-1.96-2.196-2.97-0.837 0.58-1.27 0.79-1.546 1.86-0.29 1.12 0.135 2.55 0.358 3.67-0.857 1.22-1.449 1.61-2.944 1.92-1.968 0.41-4.179 0.54-6.166 0.3-1.301-1.53-2.261-2.96-3.157-4.76-0.711 1.26-0.417 2.06-0.302 3.48l-0.403 1.84c-3.474 1.9-8.619-1.41-12.36-1.15-2.988-1.49-17.216-32.94-19.146-38.31-4.855-6.69-11.507-32.41-16.601-35.54 0.061-0.17 0.148-0.33 0.184-0.5 1.144-5.64-25.839-56.838-30.03-63.396 2.361 7.378 4.92 14.608 7.68 21.848-46.152 19.975-90.657 29.367-140.94 28.998 7.614-21.052 8.526-41.813 3.879-63.612l-0.035 0.626c-0.728 15.053 0.93 29.433-2.021 44.47-1.309 6.668-9.51 30.386-9.306 33.516-0.508 1.45-0.96 2.05-2.016 3.11-5.597 8.57-12.913 25.62-19.019 32.37-5.569 11.77-8.017 21.54-3.529 34.23 0.354 1 0.168 0.64 0.57 1.29-0.751 2.32-1.405 6-2.639 7.99-2.041 0.8-5.631 1.65-7.835 1.1-1.255-0.31-2.666-1.75-3.64-2.59-3.796 0.69-3.513 8.56-9.836 3.94-1.148-0.84-2.194-2.04-3.182-3.06-1.06 0.69-1.022 0.87-1.575 1.96-0.75 1.47-1.223 1.95-2.647 2.73-4.117 0.63-9.325-3.63-10.569-2.32-0.055 0.06-0.072 0.15-0.108 0.22-2.839-3.23-0.76-37.99-0.457-44.3 1.951-3.34 5.486-28.54 5.452-32.96-0.02-2.5 0.127-6.38-1.726-8.22l0.101-0.62c1.522-1.8-0.639-9.056-1.118-11.401-4.478-21.899-8.563-42.669-9.294-65.105-4.04 18.144-0.742 36.891 3.018 54.751-8.193 1.562-16.416 2.965-24.664 4.208-23.525 3.517-47.377 7.534-71.188 8.191-35.961 0.993-73.972-7.421-105.13-25.675-11.201-6.564-21.271-15.241-31.692-22.955-1.672-1.864-3.079-4.228-4.469-6.331-14.4-22.258-19.588-49.238-14.469-75.246 3.5337 9.15 5.7939 18.911 9.1049 28.178 7.697 21.541 19.309 38.242 40.453 48.147 51.649 24.196 110.29 11.661 154.38-22.236 20.782-15.978 38.573-35.717 59.839-50.999 27.133-19.498 57.116-33.013 88.384-44.313 17.42-5.325 34.771-10.293 53.122-10.629 14.461-0.264 29.041 1.236 43.468-0.118 19.317-1.813 35.908-8.867 48.396-23.994 18.546-25.338 25.47-55.256 34.611-84.746 13.98-45.1 28.208-93.294 54.297-133.03 6.007-8.894 12.713-17.068 20.51-24.466 19.383-18.389 43.475-30.624 70.703-29.705 11.156 0.377 15.756 7.763 22.868 14.83 2.997 2.978 6.432 5.486 9.284 8.613 1.369 1.502 2.406 2.975 2.253 5.057-0.287 3.933-3.794 6.553-5.486 9.86-1.541 3.01-1.006 6.895-3.857 9.149-9.631 7.616-27.734 0.732-38.566-0.675zm6.477-39.852c-2.806 1.561-5.65 3.031-6.686 6.326-0.511 1.622-0.416 3.486 0.447 4.973 1.224 2.111 3.643 3.403 5.967 3.901 1.374 0.295 2.715 0.321 4.111 0.262 2.709-1.06 5.25-2.111 6.439-4.975 0.758-1.824 0.764-3.82-0.059-5.626-0.958-2.1-2.873-3.77-5.063-4.479-1.639-0.53-3.455-0.425-5.156-0.382zm-46.822 18.783c-1.688 1.431-3.279 2.673-3.445 5.025-0.116 1.633 0.24 2.002 1.07 3.344 2.061 1.32 3.454 1.314 5.823 0.83 0.366-0.077 0.731-0.159 1.094-0.249 1.494-1.261 3.311-2.528 3.48-4.646 0.11-1.38-0.297-1.783-0.989-2.924-2.43-1.673-4.173-1.727-7.033-1.38zm-20.515 21.581c-2.548 2.012-6.027 5.341-6.521 8.725-0.22 1.511 0.153 1.991 1.066 3.136 1.076 0.234 2.011 0.442 3.12 0.428 2.867-1.821 5.487-3.697 6.316-7.255 0.365-1.564-0.219-2.39-0.976-3.698-1.041-0.673-1.737-1.232-3.005-1.336zm-19.198 29.937c-2.11 1.996-5.059 4.964-4.945 8.106 0.06 1.657 0.772 2.057 1.996 3.008 0.894 0.117 1.841 0.315 2.738 0.329 2.207-1.878 4.926-4.478 4.877-7.655-0.027-1.775-0.837-2.324-2.026-3.395-0.871-0.151-1.757-0.355-2.64-0.393zm-15.306 37.512c-2.236 2.041-5.137 5.244-5.237 8.453-0.044 1.426 0.411 1.929 1.376 2.876l1.943 0.401c2.305-1.958 5.159-4.445 5.379-7.683 0.088-1.301-0.75-2.731-1.853-3.396-0.586-0.353-0.987-0.45-1.608-0.651zm-13.966 32.066c-3.3 3.039-4.969 6.947-5.146 11.429-0.053 1.355 0.231 2.525 0.674 3.792 1.017 1.01 1.731 1.845 3.304 1.69 0.667-0.066 1.084-0.226 1.7-0.42 3.155-2.885 5.799-5.985 6.025-10.521 0.083-1.655-0.413-3.231-1.574-4.43-1.45-1.498-3.037-1.562-4.983-1.54zm-10.64 35.55c-1.955 3.163-4.735 9.003-3.68 12.729 0.308 1.089 0.696 1.143 1.547 1.807 1.244-6e-3 2.106-0.052 3.304-0.456 2.064-2.408 4.777-6.277 4.541-9.613-0.128-1.81-0.74-2.441-1.875-3.698-1.39-0.527-2.352-0.707-3.837-0.769zm-9.2 33.1c-4.371 3.523-7.016 8.656-7.661 14.253-0.263 2.28 0.025 4.969 1.643 6.735 1.456 1.589 3.247 1.925 5.31 1.894 0.17-3e-3 0.34-0.011 0.51-0.016 4.326-2.838 6.701-6.202 7.755-11.383 0.553-2.717 0.475-5.758-1.054-8.169-1.106-1.742-2.669-2.735-4.676-3.104-0.607-0.112-1.212-0.18-1.827-0.21zm-11.029 40.669c-4.761 2.701-7.272 6.605-8.726 11.818-0.779 2.791-1.132 6.319 0.496 8.896 1.004 1.591 2.332 2.352 4.154 2.634 0.589 0.091 1.21 0.085 1.802 0.095 4.661-2.713 7.496-6.3 8.783-11.661 0.676-2.815 0.611-5.902-1.01-8.397-1.371-2.11-3.121-2.901-5.499-3.385zm-27.15 38.99c-4.42 2.64-6.998 5.849-8.274 10.969-1.02 4.089-0.987 8.915 1.368 12.568 1.481 2.297 4.136 4.146 6.875 4.516 1.515 0.204 3.215 0.104 4.73-0.09 4.496-2.854 7.325-5.771 8.622-11.153 0.95-3.942 0.552-8.614-1.713-12.062-1.452-2.211-4.266-4.41-6.952-4.767-1.497-0.198-3.15-0.103-4.656 0.019zm-89.952 11.955c-5.989 0.943-12.331 2.336-16.048 7.659-1.862 2.667-2.476 5.928-1.807 9.107 0.783 3.726 3.292 6.893 6.505 8.86 4.615 2.824 9.117 2.868 14.272 2.356 6.331-2.144 12.129-5.413 15.252-11.63 1.414-2.815 1.975-6.046 0.793-9.046-1.095-2.781-3.476-4.683-6.188-5.795-3.93-1.612-8.599-1.652-12.779-1.511zm54.117 5.255c-1.424 1.569-2.812 2.838-3.316 4.964 0.772 1.309 0.9 1.432 2.493 1.727 0.458 0.085 1.058 0.09 1.534 0.105 1.546-1.551 2.617-2.547 3.154-4.709-0.512-1.219-0.746-1.579-2.156-1.959-0.472-0.127-1.209-0.118-1.709-0.128zm-113.05 16.664c-6.32 1.042-12.652 3.392-16.522 8.832-1.411 1.984-2.504 4.514-2.139 6.997 0.24 1.63 1.422 2.927 2.784 3.768 2.1 1.295 4.145 2.039 6.617 2.17 0.339 0.018 0.678 0.045 1.017 0.058 0.223 9e-3 0.445 7e-3 0.668 0.01 6.856-2.136 13.458-5.284 16.943-11.995 1.013-1.951 1.369-3.512 0.899-5.653-1.505-2.382-3.665-3.192-6.343-3.866-1.294-0.326-2.598-0.336-3.924-0.321zm97.841 1.824c-5.821 1.176-10.695 3.592-13.966 8.818-1.49 2.38-2.62 5.334-1.974 8.167 0.541 2.372 2.485 4.26 4.548 5.421 0.961 0.54 1.845 0.792 2.919 0.999 5.495-0.794 9.158-2.864 12.518-7.361 2.035-2.723 3.82-6.603 3.247-10.074-0.322-1.957-1.519-3.531-3.123-4.654-1.298-0.91-2.628-1.128-4.169-1.316zm34.879 12.241c-1.929 2.103-3.103 4.144-2.957 7.091 0.082 1.657 0.748 3.067 2.072 4.089 1.878 1.449 3.879 0.967 6.066 0.628 1.715-1.968 3.166-3.686 2.956-6.444-0.113-1.482-0.786-2.779-1.933-3.724-1.883-1.549-3.867-1.726-6.204-1.64zm-108.65 5.186c-4.219 1.457-8.246 3.184-10.389 7.411-1.103 2.175-1.402 4.652-0.62 6.986 0.942 2.81 3.144 4.749 5.811 5.901 3.189 1.377 7.17 1.073 10.543 0.515 4.573-1.865 8.946-4.259 10.895-9.144 0.872-2.187 0.966-4.662-0.083-6.805-1.194-2.44-3.697-4.048-6.268-4.729-3.081-0.816-6.741-0.317-9.889-0.135zm-72.167 4.973c-4.028 2.836-6.952 5.931-7.826 11.017-0.353 2.055-0.144 4.18 1.156 5.879 1.267 1.654 3.386 2.451 5.404 2.635 1.128 0.104 2.234 0.103 3.363 0.04 4.116-2.436 7.149-5.559 8.248-10.384 0.457-2.004 0.469-4.39-0.665-6.183-1.073-1.695-2.787-2.728-4.735-3.106-1.677-0.327-3.274-0.145-4.945 0.102zm-32.344 19.909c-4.985 2.636-8.349 6.005-10.035 11.576-0.682 2.253-1.01 4.921 0.26 7.037 0.849 1.417 2.394 2.317 3.975 2.676 1.398 0.318 2.831 0.161 4.242 0.023 4.988-3.229 9.237-7.303 10.652-13.33 0.434-1.851 0.487-3.847-0.617-5.485-1.048-1.555-2.995-2.373-4.8-2.599-1.213-0.152-2.466-0.014-3.677 0.102zm150.76 0.766c-4.537 1.384-8.778 3.805-11.047 8.189-1.678 3.24-1.75 7.206-0.483 10.6 1.641 4.394 5.416 7.698 9.709 9.423 3.39 1.362 6.79 1.357 10.381 1.414 4.316-1.45 7.479-3.198 9.606-7.48 0.906-1.825 1.375-3.826 1.86-5.793-1.477-5.71-3.614-10.882-8.955-14.092-3.638-2.186-6.98-2.46-11.071-2.261zm-84.58 10.895c-1.909 1.79-3.801 3.703-3.801 6.505 0 1.175 0.377 1.475 0.963 2.444 1.07 0.543 1.729 0.916 2.957 0.941 1.816-1.769 4.206-3.938 4.223-6.678 7e-3 -1.013-0.441-1.388-0.963-2.216-1.243-0.629-1.949-0.94-3.379-0.996zm-97.852 15.867c-4.543 1.369-8.357 4.041-10.526 8.402-0.858 1.726-1.322 3.824-0.552 5.664 0.642 1.532 2.036 2.75 3.548 3.398 0.742 0.319 1.564 0.49 2.352 0.653 4.817-2.018 8.576-4.482 10.638-9.559 0.648-1.595 0.814-3.269 0.091-4.874-0.768-1.704-2.441-2.797-4.174-3.346-0.746-0.236-0.714-0.213-1.377-0.338zm-39.544 25.005c-2.971 2.218-5.352 4.106-5.898 8.073-0.234 1.699 0.184 2.51 1.035 3.931 1.859 1.123 3.613 1.368 5.747 0.849 2.788-2.011 5.72-4.218 6.293-7.882 0.274-1.753-0.26-2.453-1.222-3.848-2.073-1.223-3.602-1.252-5.955-1.123zm-41.62 15.001c-3.44 1.088-6.096 2.591-7.821 5.93-0.745 1.442-0.602 2.289-0.232 3.803 1.642 1.32 2.119 1.308 4.137 1.596 2.848-1.436 6.795-3.62 7.757-6.901 0.183-0.624 0.129-1.26 0.1-1.898-1.191-1.615-1.971-2.088-3.941-2.53zm-32.235 6.252c-1.333 1.308-3.112 2.807-3.268 4.809-0.05 0.642 0.095 1.244 0.223 1.867 1.274 1.005 1.889 1.385 3.564 1.2 0.769-0.085 1.566-0.366 2.304-0.599 1.63-1.128 2.825-1.891 3.733-3.688 0.096-1.798 0.094-1.693-1.065-3.08-1.992-0.818-3.37-0.709-5.491-0.509z" fill="#A1625F"/> <path d="m769.72 538.61c-1.396 0.059-2.737 0.033-4.111-0.262-2.324-0.498-4.743-1.79-5.967-3.901-0.863-1.487-0.958-3.351-0.447-4.973 1.036-3.295 3.88-4.765 6.686-6.326 1.701-0.043 3.517-0.148 5.156 0.382 2.19 0.709 4.105 2.379 5.063 4.479 0.823 1.806 0.817 3.802 0.059 5.626-1.189 2.864-3.73 3.915-6.439 4.975zm-2.428-10.755c-1.807 0.272-3.316 1.516-3.928 3.237s-0.226 3.639 1.003 4.989c1.23 1.351 3.103 1.915 4.874 1.468 2.56-0.646 4.162-3.187 3.642-5.775s-2.98-4.312-5.591-3.919z" fill="#FEFEFE"/> <path d="m0 566.88c18.646-12.596 18.108-22.55 28.939-39.454 0.1175-0.183 0.2389-0.364 0.3583-0.546 1.0167 28.953 1.7731 57.914 2.2693 86.881 0.4016 21.786 1.1227 44.092-0.2061 65.848-10.588 3.039-20.93 6.923-31.361 10.453v-123.18z" fill="#FEFEFE"/> <path d="m769.24 537.54c-1.771 0.447-3.644-0.117-4.874-1.468-1.229-1.35-1.615-3.268-1.003-4.989s2.121-2.965 3.928-3.237c2.611-0.393 5.071 1.331 5.591 3.919s-1.082 5.129-3.642 5.775z"/> <path d="m962.15 573.61c5.907-8.269 10.223-18.957 13.931-28.385 1.367-3.476 2.394-7.127 4.116-10.442l0.189 4.529c-3.15 16.799-3.013 34.171-3.283 51.212-0.463 27.229-0.218 54.466 0.734 81.683 0.612 20.056 0.656 46.56 3.67 66.146 1.252 16.368 2.601 33.136 5.234 49.341 1.268 11.22 2.643 22.427 4.127 33.621 1.329 12.272 3.253 24.544 5.272 36.721 0.973 7.674 2.003 15.278 3.639 22.843l-0.834 0.425c-6.478-1.099-12.516-1.111-18.977 0.048-1.793-8.198-2.43-16.785-3.578-25.109-2.861-18.449-4.362-37.029-6.556-55.556-0.606-8.971-1.385-17.937-2.087-26.901-1.567-14.037-2.153-28.287-3.039-42.381-1.923-33.121-2.952-66.289-3.084-99.466-0.115-19.444 0.58-38.883 0.526-58.329z" fill="#182B52"/> <path d="m980.39 539.32 0.195 0.416c3.835 8.376 6.053 17.507 9.845 25.947 8.653 19.26 21.182 34.409 33.572 51.204v138.84c-14.06-6.044-28.456-11.217-42.491-17.365-3.014-19.586-3.058-46.09-3.67-66.146-0.952-27.217-1.197-54.454-0.734-81.683 0.27-17.041 0.133-34.413 3.283-51.212z" fill="#FEFEFE"/> <path d="m723.6 550.88c-0.363 0.09-0.728 0.172-1.094 0.249-2.369 0.484-3.762 0.49-5.823-0.83-0.83-1.342-1.186-1.711-1.07-3.344 0.166-2.352 1.757-3.594 3.445-5.025 2.86-0.347 4.603-0.293 7.033 1.38 0.692 1.141 1.099 1.544 0.989 2.924-0.169 2.118-1.986 3.385-3.48 4.646z" fill="#FDD0C1"/> <path d="m759.4 563c-15.723 1.942-29.347 12.784-38.844 24.933-2.495 3.193-4.662 6.614-6.825 10.036-9.176 15.375-14.16 33.876-18.555 51.106-6.666 26.76-12.123 53.806-16.355 81.056-2.255 13.886-3.93 27.897-6.495 41.725-2.604 22.393-6.789 44.459-11.292 66.533-5.141 27.119-12.39 54.614-23.984 79.721-4.441-11.928-9.437-22.899-15.569-34.055 16.875-38.787 24.004-81.466 31.927-122.78 3.127-16.305 6.834-32.47 10.085-48.744 7.846-39.271 19.142-91.075 41.402-124.39 8.741-13.084 20.768-26.954 37.013-29.962 6.781-1.255 12.049 1.103 17.492 4.818z" fill="#BB7D74"/> <path d="m696.21 575.8c-1.109 0.014-2.044-0.194-3.12-0.428-0.913-1.145-1.286-1.625-1.066-3.136 0.494-3.384 3.973-6.713 6.521-8.725 1.268 0.104 1.964 0.663 3.005 1.336 0.757 1.308 1.341 2.134 0.976 3.698-0.829 3.558-3.449 5.434-6.316 7.255z" fill="#FDD0C1"/> <path d="m49.519 566.87c4.6307 7.353 8.7345 23.342 12.682 32.476 5.9527 13.774 12.563 27.351 18.942 40.938 2.8273 6.021 6.0265 12.062 8.3963 18.275-12.483 4.68-25.022 9.85-37.71 13.916-0.9042-35.22-0.9333-70.375-2.3111-105.6z" fill="#FEFEFE"/> <path d="m874.07 688.47c21.657-24.198 43.335-49.09 62.294-75.475 9.201-12.804 16.917-26.427 25.789-39.383 0.054 19.446-0.641 38.885-0.526 58.329 0.132 33.177 1.161 66.345 3.084 99.466-15.62-7.517-31.661-14.218-47.294-21.765-14.396-6.95-28.652-14.987-43.347-21.172z" fill="#FEFEFE"/> <path d="m127.15 606.09c1.618-0.78 3.26-1.495 4.985-2.006 10.638-3.151 86.707-17.229 94.258-13.218-20.631 14.938-44.187 26.857-67.169 37.719-9.032 4.269-18.577 8.056-27.386 12.708-1.299-11.797-2.712-23.495-4.688-35.203z" fill="#FEFEFE"/> <path d="m679.13 604.89c-0.897-0.014-1.844-0.212-2.738-0.329-1.224-0.951-1.936-1.351-1.996-3.008-0.114-3.142 2.835-6.11 4.945-8.106 0.883 0.038 1.769 0.242 2.64 0.393 1.189 1.071 1.999 1.62 2.026 3.395 0.049 3.177-2.67 5.777-4.877 7.655z" fill="#FDD0C1"/> <path d="m672.33 771.85c2.565-13.828 4.24-27.839 6.495-41.725 4.232-27.25 9.689-54.296 16.355-81.056 4.395-17.23 9.379-35.731 18.555-51.106 12.93 9.551 28.053 17.236 41.919 25.435 22.836 13.503 45.546 27.152 68.837 39.878 10.768 5.884 21.859 11.177 32.745 16.838-3.895 9.21-8.295 18.58-11.437 28.052-1.625 2.794-2.868 5.975-4.235 8.913 11.567-8.675 22.945-17.703 32.508-28.61 14.695 6.185 28.951 14.222 43.347 21.172 15.633 7.547 31.674 14.248 47.294 21.765 0.886 14.094 1.472 28.344 3.039 42.381-13.055-7.308-28.047-8.317-42.315-4.245-12.51 3.57-24.72 10.764-35.157 18.469-5.452 4.025-10.643 8.449-16.805 11.362-5.126 2.423-10.331 3.536-15.892 4.417-13.664-11.246-27.803-21.879-46.579-20.103-14.251 1.347-29.231 10.608-40.803 18.681-9.132 5.952-18.127 12.111-26.979 18.472-7.12 5.542-14.385 10.971-21.181 16.91 1.641 0.663 3.578 0.723 5.334 0.921-6.489 0.314-13.183-0.32-19.699-0.37-15.546-0.121-31.093-0.093-46.638 0.082 4.503-22.074 8.688-44.14 11.292-66.533z" fill="#9EABDC"/> <path d="m662.12 642.69-1.943-0.401c-0.965-0.947-1.42-1.45-1.376-2.876 0.1-3.209 3.001-6.412 5.237-8.453 0.621 0.201 1.022 0.298 1.608 0.651 1.103 0.665 1.941 2.095 1.853 3.396-0.22 3.238-3.074 5.725-5.379 7.683z" fill="#FDD0C1"/> <path d="m650.6 679.51c-0.616 0.194-1.033 0.354-1.7 0.42-1.573 0.155-2.287-0.68-3.304-1.69-0.443-1.267-0.727-2.437-0.674-3.792 0.177-4.482 1.846-8.39 5.146-11.429 1.946-0.022 3.533 0.042 4.983 1.54 1.161 1.199 1.657 2.775 1.574 4.43-0.226 4.536-2.87 7.636-6.025 10.521z" fill="#FDD0C1"/> <path d="m0 690.06c10.431-3.53 20.773-7.414 31.361-10.453l-1.4498 46.508c-0.2438 7.516 0.1347 15.727-1.0263 23.14-6.3635-2.646-11.97-3.459-18.497-0.755-3.8056 1.576-7.178 4.096-10.388 6.637v-65.077z" fill="#50319A"/> <path d="m640.6 712.65c-1.198 0.404-2.06 0.45-3.304 0.456-0.851-0.664-1.239-0.718-1.547-1.807-1.055-3.726 1.725-9.566 3.68-12.729 1.485 0.062 2.447 0.242 3.837 0.769 1.135 1.257 1.747 1.888 1.875 3.698 0.236 3.336-2.477 7.205-4.541 9.613z" fill="#FDD0C1"/> <path d="m630.03 754.54c-0.17 5e-3 -0.34 0.013-0.51 0.016-2.063 0.031-3.854-0.305-5.31-1.894-1.618-1.766-1.906-4.455-1.643-6.735 0.645-5.597 3.29-10.73 7.661-14.253 0.615 0.03 1.22 0.098 1.827 0.21 2.007 0.369 3.57 1.362 4.676 3.104 1.529 2.411 1.607 5.452 1.054 8.169-1.054 5.181-3.429 8.545-7.755 11.383z" fill="#FDD0C1"/> <path d="m981.51 738.36c14.035 6.148 28.431 11.321 42.491 17.365v24.046c-10.56 3.962-20.63 8.531-30.435 14.137-2.171-2.325-4.218-4.365-6.822-6.207-2.633-16.205-3.982-32.973-5.234-49.341z" fill="#9EABDC"/> <path d="m51.223 767.52c4.4603 2.799 8.5146 8.655 13.578 10.142 7.1162 2.089 20.156-10.189 25.71-14.094 4.5457-3.241 9.2658-6.231 14.139-8.956 14.796-8.119 33.751-15.68 50.546-10.862 3.723 1.303 9.691 5.463 11.632 8.935 0.066 0.117 0.109 0.245 0.164 0.367 1.582 1.413 2.182 2.346 4.315 2.657 1.64-0.665 3.27-1.402 4.968-1.9 13.465-2.236 27.861 0.537 39.107 8.524 10.579 7.514 18.956 20.103 27.085 30.158 2.794 3.455 5.717 7.843 9.503 10.265 1.585 1.014 2.657 0.738 4.415 0.434 0.723-0.126 1.441-0.3 2.156-0.464 15.409-3.55 28.487-3.811 42.337 4.828 1.518 0.951 3.027 1.918 4.524 2.902 5.337 4.516 10.828 9.481 13.962 15.863l-61.967 2.053c-22.623 1.033-45.277 1.415-67.901 2.491-17.595 0.837-35.237 2.402-52.832 2.931-29.003 1.362-59.006 4.163-87.9 4.554l1.7591-41.118c0.1104-9.906 0.344-19.81 0.7007-29.71z" fill="#009492"/> <path d="m0 755.14c3.2098-2.541 6.5822-5.061 10.388-6.637 6.5268-2.704 12.133-1.891 18.497 0.755-0.2598 12.377-1.0308 24.687-1.5219 37.049-1.4607 17.871-2.2831 35.797-3.9234 53.654-7.8041 0.424-15.634 1.089-23.439 1.378v-49.027-37.172z" fill="#009492"/> <path d="m857.58 803.79c5.561-0.881 10.766-1.994 15.892-4.417 6.162-2.913 11.353-7.337 16.805-11.362 10.437-7.705 22.647-14.899 35.157-18.469 14.268-4.072 29.26-3.063 42.315 4.245 0.702 8.964 1.481 17.93 2.087 26.901 2.194 18.527 3.695 37.107 6.556 55.556-34.697-3.667-69.617-5.653-104.36-8.967-10.317-0.985-20.76-1.061-31.012-2.661-11.683-0.674-23.36-1.971-35.042-2.778-26.045-1.798-52.486-3.09-78.605-3.167-1.756-0.198-3.693-0.258-5.334-0.921 6.796-5.939 14.061-11.368 21.181-16.91 8.852-6.361 17.847-12.52 26.979-18.472 11.572-8.073 26.552-17.334 40.803-18.681 18.776-1.776 32.915 8.857 46.579 20.103z" fill="#009492"/> <path d="m616.93 795.78c-0.592-0.01-1.213-4e-3 -1.802-0.095-1.822-0.282-3.15-1.043-4.154-2.634-1.628-2.577-1.275-6.105-0.496-8.896 1.454-5.213 3.965-9.117 8.726-11.818 2.378 0.484 4.128 1.275 5.499 3.385 1.621 2.495 1.686 5.582 1.01 8.397-1.287 5.361-4.122 8.948-8.783 11.661z" fill="#FDD0C1"/> <path d="m993.56 793.9c9.805-5.606 19.875-10.175 30.435-14.137v30.121 49.746c-9.28-0.673-18.55-1.39-27.858-1.595-2.019-12.177-3.943-24.449-5.272-36.721-1.484-11.194-2.859-22.401-4.127-33.621 2.604 1.842 4.651 3.882 6.822 6.207z" fill="#009492"/> <path d="m596.75 839.3c-1.515 0.194-3.215 0.294-4.73 0.09-2.739-0.37-5.394-2.219-6.875-4.516-2.355-3.653-2.388-8.479-1.368-12.568 1.276-5.12 3.854-8.329 8.274-10.969 1.506-0.122 3.159-0.217 4.656-0.019 2.686 0.357 5.5 2.556 6.952 4.767 2.265 3.448 2.663 8.12 1.713 12.062-1.297 5.382-4.126 8.299-8.622 11.153z" fill="#FDD0C1"/> <path d="m319.36 826.32c29.811-0.229 59.701-2.265 89.51-3.172 9.658-0.166 30.559-1.638 38.924-0.294-31.268 11.3-61.251 24.815-88.384 44.313-21.266 15.282-39.057 35.021-59.839 50.999-44.088 33.897-102.73 46.432-154.38 22.236-21.144-9.905-32.756-26.606-40.453-48.147-3.311-9.267-5.5712-19.028-9.1049-28.178-5.1195 26.008 0.0685 52.988 14.469 75.246 1.39 2.103 2.797 4.467 4.469 6.331 21.402 31.447 61.403 51.227 97.888 58.216 28.776 5.51 57.001 3.17 86.046 2.53 18.689-0.42 37.416-0.05 56.029-2.14 1.853 1.84 1.706 5.72 1.726 8.22 0.034 4.42-3.501 29.62-5.452 32.96-3.647 2.3-39.469 3.17-45.982 3.63-32.73 2.23-65.414 5.1-98.033 8.6-9.112 0.9-18.216 1.88-27.311 2.93-6.108 0.75-12.314 1.93-18.456 2.16l-1.488-1.05c1.066-14.23 1.295-28.53 1.623-42.8-5.225 7.95-20.627 42.64-25.088 46.4-3.49 1.68-36.243 7.23-39.15 6.15-0.5216-0.2-0.7442-0.37-1.1847-0.65-1.6991-14.2-2.8581-28.4-5.2293-42.52-6.3599-37.861-17.184-74.305-29.411-110.61-10.519 38.209-14.666 79.145-17.219 118.57-0.9256 14.3-0.1506 29.44-1.9985 43.58-2.792 2.08-9.566 3.49-13.126 3.31-0.8202-0.04-1.4146-0.32-2.1514-0.65l-0.3064-0.13c0.6483-11.5 2.9021-23.36 4.3425-34.81 2.6816-20.89 5.1098-41.8 7.2841-62.744 4.7311-43.509 6.9927-87.177 9.9011-130.83 11.398-0.183 23.326-2.979 34.538-4.905 15.535-2.668 31.794-5.019 47.003-9.115 2.551-0.687 7.014-1.761 8.393-4.192l-1.098-1.966c17.595-0.529 35.237-2.094 52.832-2.931 22.624-1.076 45.278-1.458 67.901-2.491l61.967-2.053zm-17.236 23.216c-1.969 0.306-3.801 0.413-5.4 1.718l0.227 0.901c5.073 2.352 11.913 2.005 17.375 1.53 1.76-0.581 2.83-0.646 4.002-2.118-1.953-2.049-6.763-2.154-9.541-2.196-2.218-0.034-4.447 0.071-6.663 0.165zm-60.881 23.797c-2.121 0.328-4.197 0.555-6.187 1.399l-0.292-1.138-0.172 1.383-0.483 0.375 0.102 0.812c5.018 2.558 11.726 2.36 17.234 2.037 1.769-0.335 3.915-0.454 5.188-1.817-0.611-1.234-0.932-1.207-2.206-1.661-4.003-1.427-8.973-1.68-13.184-1.39zm-31.465 40.654c-4.38 0.517-11.641 1.008-14.653 4.701-0.764 0.937-0.653 1.297-0.805 2.44 0.934 2.294 2.422 3.32 4.678 4.285 4.646 1.987 10.572 2.225 15.572 1.985 4.205-0.57 10.444-0.762 13.211-4.518 0.731-0.992 0.613-1.52 0.738-2.706-1.189-2.699-3.114-3.933-5.861-4.913-3.816-1.361-8.861-1.623-12.88-1.274zm-95.357 72.377c-1.585 0.622-2.651 0.726-3.603 2.172 2.8 2.31 9.123 1.608 12.628 1.56 1.447-0.794 2.202-0.814 2.682-2.439-2.507-2.222-8.535-1.415-11.707-1.293zm122.34 44.306c-1.367 0.95-1.98 1.03-2.369 2.69 1.576 1.32 3.538 1.49 5.591 1.32 1.248-0.1 1.947-0.48 2.976-1.16 1.8 0.27 1.799 0.32 3.354-0.61-0.523-1.04-0.148-0.74-1.299-1.14-2.682-0.94-5.65 0.02-8.253-1.1z" fill="#FAE6D3"/> <path d="m505.02 851.27c-5.155 0.512-9.657 0.468-14.272-2.356-3.213-1.967-5.722-5.134-6.505-8.86-0.669-3.179-0.055-6.44 1.807-9.107 3.717-5.323 10.059-6.716 16.048-7.659 4.18-0.141 8.849-0.101 12.779 1.511 2.712 1.112 5.093 3.014 6.188 5.795 1.182 3 0.621 6.231-0.793 9.046-3.123 6.217-8.921 9.486-15.252 11.63z" fill="#FDD0C1"/> <path d="m556.93 835.34c-0.476-0.015-1.076-0.02-1.534-0.105-1.593-0.295-1.721-0.418-2.493-1.727 0.504-2.126 1.892-3.395 3.316-4.964 0.5 0.01 1.237 1e-3 1.709 0.128 1.41 0.38 1.644 0.74 2.156 1.959-0.537 2.162-1.608 3.158-3.154 4.709z" fill="#FAE6D3"/> <path d="m48.764 838.35c28.894-0.391 58.898-3.192 87.9-4.554l1.098 1.966c-1.379 2.431-5.842 3.505-8.393 4.192-15.209 4.096-31.468 6.447-47.003 9.115-11.212 1.926-23.14 4.722-34.538 4.905 0.5694-5.13 0.6371-10.463 0.9357-15.624z" fill="#FDD0C1"/> <path d="m661.04 838.38c15.545-0.175 31.092-0.203 46.638-0.082 6.516 0.05 13.21 0.684 19.699 0.37 26.119 0.077 52.56 1.369 78.605 3.167 11.682 0.807 23.359 2.104 35.042 2.778 10.252 1.6 20.695 1.676 31.012 2.661 34.744 3.314 69.664 5.3 104.36 8.967 1.148 8.324 1.785 16.911 3.578 25.109-18.87 4.464-31.481 14.972-41.643 31.379-1.868 3.017-3.748 6.096-5.134 9.368-17.155-5.827-33.203-9.561-51.382-10.433-19.133-3.189-39.454-4.85-58.82-3.084-17.45 1.592-121.04 29.794-132.23 37.157-0.478 1.011-0.362 0.548-0.48 1.349-14.462 4.328-32.662 9.242-40.305 23.666-2.443 4.611-3.066 9.833-1.561 14.856 2.431 8.112 9.668 13.491 16.917 17.107 9.686 4.84 20.298 7.71 30.603 10.89 9.695 2.99 19.103 6.15 29.099 8.01 10.423 1.94 21.046 2.89 31.43 4.98 20.618 4.16 41.691 10.2 61.65 16.86 10.455 3.49 20.956 7.14 31.167 11.29 4.765 1.94 24.97 12.3 28.256 12.08 5.468 21.97 10.099 44.47 17.247 65.97-0.266 0.9-0.457 1.59-0.982 2.37-1.138 1.71-24.848 30.66-24.938 30.73-0.164 0.11-0.358 0.18-0.536 0.27-0.659 0.09-1.201 0.19-1.854-0.01-5.617-1.72-11.291-5.54-16.638-8.08-7.635-3.62-15.648-6.66-23.513-9.74-6.578-2.58-34.231-11.33-37.528-13.55-0.28-0.19-0.699-0.61-0.916-0.82 2.064 4.96 20.111 30.82 24.329 34.02-0.027 0.89-0.041 1.68-0.42 2.51-2.179 4.78-6.906 9.68-9.787 14.25-2.238 3.55-4.127 8.91-6.86 11.8-3.799-3.58-6.519-11.57-9.397-16.17-2.001-3.2-4.46-6.14-6.803-9.09-3.503-4.42-7.219-8.45-11.449-12.19-2.002-1.77-5.088-3.4-6.648-5.48-2.717 14.41-5.18 40.79 1.659 54.01-0.254 0.03-0.508 0.07-0.763 0.09-3.461 0.27-14.288-6.13-18.749-7.23-7.745-1.92-22.241-1.97-28.04-5.16 6.337 13.17 49.094 45.88 63.008 50.66 1.553 0.53 3.078 0.99 4.73 0.7 2.904 3.28 8.311 10.48 12.888 10.81-3.627 3.62-12.122 4.78-16.979 6.88-6.983 3.03-22.569 14.21-28.517 15.1-1.447-0.2-1.956-0.5-3.036-1.48-4.706-3.81-11.677-18.99-16.85-25.22-6.689-8.05-14.559-15.4-22.623-22.05-6.832-5.64-15.322-10.61-20.404-17.99-2.203-3.2-2.872-6.54-3.463-10.28 2.296-2.32 2.407-5.82 2.389-8.92-0.094-16.58-5.821-31.39-9.666-47.18-1.515 3.98-8.459 19.74-11.295 21.87-0.875-0.37-19.501-14.12-20.206-14.93 1.031 7.95 3.284 26.01 8.021 31.92-3.908 0.34-7.986-1.28-11.876-1.85-4.929-0.73-10.264-0.53-15.055-1.38-0.93-0.16-1.581-0.48-2.424-0.88 4.945 6.76 35.922 28.33 44.362 30.45 0.446 0.11 0.618 0.07 1.026 0.04 5.761 7.19 16.129 7.78 22.58 14.32 5.265 5.35 8.824 12.25 12.268 18.84 0.958 1.83 2.011 4.84 3.346 6.26l-1.44 1.08c-5.189-0.67-11.235-3.97-16.242-5.78-10.032-3.62-19.775-5.93-30.401-7.04-8.922-0.93-18.315-0.91-27.234 0.08-4.879 0.54-11.44 3.26-16.136 2.54-0.062-0.19-0.14-0.38-0.184-0.58-0.291-1.35-0.062-2.73 0.07-4.08-1.123-2.9-4.759-5.01-7.506-6.19-10.271-4.45-25.508-4.09-35.799 0.13-3.507 1.44-7.677 3.85-9.285 7.42-0.552 1.23-0.631 2.42-0.099 3.68 1.325 3.14 5.813 5.2 8.912 6.24 11.699 3.91 28.325 4.42 39.46-1.46 1.867-0.99 2.785-2.27 3.778-4.09 3.725 2.79 9.099 4.42 13.343 6.38 7.056 3.27 14.049 6.68 20.974 10.22 8.131 4.22 16.205 8.55 24.219 12.99 3.733 2.08 8.161 5.52 12.132 6.78-3.066 1.21-185.3 1.36-204.08 0.61-1.291-0.05-2.146-0.29-3.335-0.75 0.419 0.09 0.575 0.15 1.055 0.11 5.085-0.38 11.985-3.95 14.897-8.09 2.341-3.33 2.637-7.38 2.03-11.29-1.777-11.47-11.68-25.37-20.796-32.23-3.348-2.52-7.332-3.76-10.584-6.18-0.12-0.09-0.236-0.18-0.354-0.27-3.291 8.19-11.005 18.29-17.872 23.69-3.198 2.51-7.22 5.24-11.467 4.56-2.243-0.36-4.176-1.74-5.355-3.68-1.163-1.91-0.735-4.34-0.149-6.36 4.48-15.52 17.152-14.85 27.444-21.09 1.624-0.99 3.37-2.5 3.736-4.46 0.4-2.14-0.59-4.08-1.732-5.82-3.775-5.74-9.902-10.46-16.743-11.73-25.553-4.75-23.404 36.55-33.724 42.19-1.085 0.59-2.153 0.69-3.334 0.36-2.216-0.62-4.038-2.72-4.995-4.73-1.808-3.79-1.581-8.74-1.053-12.82 3.162-24.4 22.261-30.21 24.666-38.24 0.299-1-0.092-1.28-0.51-2.17-5.317-4.24-15.014-4.99-21.574-5.03-28.562-0.19-19.192 38.07-29.892 48.75-1.829 0.69-1.886 0.57-3.645 0-0.646-1.08-0.997-2.41-1.426-3.6-2.352-0.27-5.548-2.82-7.348-4.32-1.114-0.24-3.41-0.42-4.055-1.28l4.494-1.37c2.36 1.17 4.162 2.2 6.764 1.45l0.676-2.05c-0.846-12.37-4.755-44.11-11.737-53.63l-0.562-0.08c-11.797-1.73-37.202-9.01-47.399-1.47-2.444 1.81-3.733 4.48-4.145 7.45-1.08 7.77 3.821 24.24 6.359 31.97-2.148 2.86-7.887 8.21-11.375 9.08-3.457-1.48-6.807-6.62-8.197-10-5.543-13.47-1.333-25.86 0.039-39.46-0.279 0.15-0.553 0.31-0.836 0.45-7.59 3.81-24.642-1.53-29.599 11.86-2.194 5.93-5e-3 12.11 2.666 17.45 4.138 8.27 10.106 17.56 6.645 27.21-0.644 1.79-1.476 2.75-3.054 3.77-2.027 0.47-3.315 0.27-5.126-0.81-7.851-4.69-13.029-17.5-14.696-26.03-0.087-0.45-0.157-0.9-0.211-1.35 1.815-8.24 1.157-18.35 1.725-26.88 1.189-16.48 2.598-32.95 4.227-49.39 1.433 0.44 2.827 0.53 4.313 0.64 50.365 3.63 100.84 5.56 151.33 5.79 56.833 1.03 113.68 0.64 170.5-1.17 36.095-0.68 72.177-1.92 108.23-3.74 28.785-1.46 57.838-3.34 86.324-7.89 17.215-2.75 34.236-7.07 51.164-11.2 8.894-2.17 26.748-4.76 33.316-10.36-3.858-1.76-6.018-6.5-10.547-8.27-7.822-3.04-21.663-3.87-30.307-5.32-40.151-6.64-80.413-12.59-120.77-17.86l-30.946-4c-3.95-0.48-8.603-0.37-12.414-1.34-0.707-0.19-1.135-0.6-1.677-1.05-2.165-3.23-3.077-10.97-3.725-14.82-2.594-14.87-4.06-29.9-4.386-44.984-0.394-24.267 2.753-46.41-5.559-69.96 11.594-25.107 18.843-52.602 23.984-79.721zm169.21 34.215c-1.486 0.507-2.804 0.795-3.791 2.107 0.639 1.19 1 1.146 2.274 1.508 2.105 0.599 4.547 0.622 6.724 0.464 1.456-0.603 2.336-0.7 3.204-2.046-1.647-1.813-6.051-1.871-8.411-2.033zm94.833 3.802-0.4 1.711c0.928 1.188 1.527 1.582 3.059 1.811 3.096 0.462 6.784-0.085 9.808-0.783l0.415-1.346c-2.572-2.363-7.156-1.695-10.477-1.554-0.803 0.033-1.605 0.087-2.405 0.161zm-196.72 5.128c-5.426 0.307-16.964 0.519-20.748 5.019-0.979 1.163-0.891 1.613-0.929 3.061 1.626 3.021 4.669 4.303 7.841 5.231 5.092 1.435 10.367 2.115 15.657 2.019 5.65-0.303 14.995-0.264 19.229-4.524 1.197-1.204 1.236-2.049 1.309-3.674-1.272-2.705-3.284-3.834-6.019-4.888-5.003-1.929-11.029-2.125-16.34-2.244zm15.084 237.96c-0.899 1.54-1.351 1.76-0.98 3.56 1.783 1.17 3.153 1.21 5.23 0.8 1.314-0.26 1.896-0.55 2.814-1.5l1.352-0.32-0.177-0.97c-2.635-1.21-5.382-1.32-8.239-1.57zm-224.98 11.21c-0.27 0.14-0.536 0.29-0.81 0.43-4.974 2.43-23.624 1.96-26.376 9.48-0.442 1.2-0.266 2.32 0.329 3.44 2.33 4.41 9.201 6.63 13.772 7.64 5.884 1.3 20.029 3.7 25.318 0.66 0.116-0.07 0.222-0.15 0.333-0.22 4.199 2.24 12.663-0.07 17.029-1.4 3.226-0.97 8.064-2.4 9.651-5.65 0.65-1.33 0.578-2.84-0.034-4.18-1.613-3.52-6.349-5.29-9.813-6.41-4.062-1.27-8.243-2.13-12.478-2.55-4.023-0.42-13.829 0.31-16.921-1.24zm-2.561 82.52-1.694 2.26c0.208 1.18 0.147 1.56 1.177 2.3 2.101 1.52 7.547 1.69 10.08 1.16 0.962-0.21 1.645-0.56 2.478-1.06 0.58-0.11 1.57-0.08 1.933-0.61 0.101-0.14 0.58-1.17 0.665-1.35-1.666-1.99-4.501-2.07-6.919-2.26-2.399-0.2-5.521 0.4-7.72-0.44z" fill="#FAE6D3"/> <path d="m0 841.34c7.8053-0.289 15.635-0.954 23.439-1.378-0.4881 6.164-0.2552 13.997-1.9165 19.904l-0.9116-1.08c-6.3954-0.152-14.132 3.577-20.611 4.678v-22.124z" fill="#FDD0C1"/> <path d="m435.59 867.04c-0.223-3e-3 -0.445-1e-3 -0.668-0.01-0.339-0.013-0.678-0.04-1.017-0.058-2.472-0.131-4.517-0.875-6.617-2.17-1.362-0.841-2.544-2.138-2.784-3.768-0.365-2.483 0.728-5.013 2.139-6.997 3.87-5.44 10.202-7.79 16.522-8.832 1.326-0.015 2.63-5e-3 3.924 0.321 2.678 0.674 4.838 1.484 6.343 3.866 0.47 2.141 0.114 3.702-0.899 5.653-3.485 6.711-10.087 9.859-16.943 11.995z" fill="#FDD0C1"/> <path d="m532.53 870.44c-1.074-0.207-1.958-0.459-2.919-0.999-2.063-1.161-4.007-3.049-4.548-5.421-0.646-2.833 0.484-5.787 1.974-8.167 3.271-5.226 8.145-7.642 13.966-8.818 1.541 0.188 2.871 0.406 4.169 1.316 1.604 1.123 2.801 2.697 3.123 4.654 0.573 3.471-1.212 7.351-3.247 10.074-3.36 4.497-7.023 6.567-12.518 7.361z" fill="#FDD0C1"/> <path d="m314.33 853.68c-5.462 0.475-12.302 0.822-17.375-1.53l-0.227-0.901c1.599-1.305 3.431-1.412 5.4-1.718 2.216-0.094 4.445-0.199 6.663-0.165 2.778 0.042 7.588 0.147 9.541 2.196-1.172 1.472-2.242 1.537-4.002 2.118z" fill="#FDD0C1"/> <path d="m996.14 858.04c9.308 0.205 18.578 0.922 27.858 1.595v32.587c-7.59-5.844-15.31-8.235-24.219-11.339-1.636-7.565-2.666-15.169-3.639-22.843z" fill="#FAE6D3"/> <path d="m0 863.46c6.479-1.101 14.216-4.83 20.611-4.678l0.9116 1.08c-1.8662 29.594-5.0495 59.09-9.5406 88.4-2.8837 19.463-6.0492 40.084-11.982 58.888v-143.69z" fill="#FAE6D3"/> <path d="m581.06 871.08c-2.187 0.339-4.188 0.821-6.066-0.628-1.324-1.022-1.99-2.432-2.072-4.089-0.146-2.947 1.028-4.988 2.957-7.091 2.337-0.086 4.321 0.091 6.204 1.64 1.147 0.945 1.82 2.242 1.933 3.724 0.21 2.758-1.241 4.476-2.956 6.444z" fill="#FDD0C1"/> <path d="m472.58 885.27c-3.373 0.558-7.354 0.862-10.543-0.515-2.667-1.152-4.869-3.091-5.811-5.901-0.782-2.334-0.483-4.811 0.62-6.986 2.143-4.227 6.17-5.954 10.389-7.411 3.148-0.182 6.808-0.681 9.889 0.135 2.571 0.681 5.074 2.289 6.268 4.729 1.049 2.143 0.955 4.618 0.083 6.805-1.949 4.885-6.322 7.279-10.895 9.144z" fill="#FDD0C1"/> <path d="m397.16 889c-1.129 0.063-2.235 0.064-3.363-0.04-2.018-0.184-4.137-0.981-5.404-2.635-1.3-1.699-1.509-3.824-1.156-5.879 0.874-5.086 3.798-8.181 7.826-11.017 1.671-0.247 3.268-0.429 4.945-0.102 1.948 0.378 3.662 1.411 4.735 3.106 1.134 1.793 1.122 4.179 0.665 6.183-1.099 4.825-4.132 7.948-8.248 10.384z" fill="#FDD0C1"/> <path d="m835.45 876.68c-2.177 0.158-4.619 0.135-6.724-0.464-1.274-0.362-1.635-0.318-2.274-1.508 0.987-1.312 2.305-1.6 3.791-2.107 2.36 0.162 6.764 0.22 8.411 2.033-0.868 1.346-1.748 1.443-3.204 2.046z" fill="#FDD0C1"/> <path d="m251.45 878.2c-5.508 0.323-12.216 0.521-17.234-2.037l-0.102-0.812 0.483-0.375 0.172-1.383 0.292 1.138c1.99-0.844 4.066-1.071 6.187-1.399 4.211-0.29 9.181-0.037 13.184 1.39 1.274 0.454 1.595 0.427 2.206 1.661-1.273 1.363-3.419 1.482-5.188 1.817z" fill="#FDD0C1"/> <path d="m937.54 879.14c-3.024 0.698-6.712 1.245-9.808 0.783-1.532-0.229-2.131-0.623-3.059-1.811l0.4-1.711c0.8-0.074 1.602-0.128 2.405-0.161 3.321-0.141 7.905-0.809 10.477 1.554l-0.415 1.346z" fill="#FDD0C1"/> <path d="m979.97 881.36c6.461-1.159 12.499-1.147 18.977-0.048l0.834-0.425c8.909 3.104 16.629 5.495 24.219 11.339v52.25c-18.94 0.17-38.121 0.831-57.037-0.073-4.169 0.676-9.113 0.146-13.368 0.131-9.178-0.175-18.573 0.287-27.7-0.587-35.747-1.448-68.737 1.277-104.78-4.388-4.095-0.643-10.623-1.193-14.016-3.438-0.538-1.659-0.274-1.88 0.296-3.468 6.093-1.783 11.754-5.441 17.591-7.969 18.444-7.988 36.617-12.962 56.822-13.01 18.179 0.872 34.227 4.606 51.382 10.433 1.386-3.272 3.266-6.351 5.134-9.368 10.162-16.407 22.773-26.915 41.643-31.379z" fill="#009492"/> <path d="m730.18 896.86c-5.29 0.096-10.565-0.584-15.657-2.019-3.172-0.928-6.215-2.21-7.841-5.231 0.038-1.448-0.05-1.898 0.929-3.061 3.784-4.5 15.322-4.712 20.748-5.019 5.311 0.119 11.337 0.315 16.34 2.244 2.735 1.054 4.747 2.183 6.019 4.888-0.073 1.625-0.112 2.47-1.309 3.674-4.234 4.26-13.579 4.221-19.229 4.524z" fill="#FD9B6B"/> <path d="m361.17 910.65c-1.411 0.138-2.844 0.295-4.242-0.023-1.581-0.359-3.126-1.259-3.975-2.676-1.27-2.116-0.942-4.784-0.26-7.037 1.686-5.571 5.05-8.94 10.035-11.576 1.211-0.116 2.464-0.254 3.677-0.102 1.805 0.226 3.752 1.044 4.8 2.599 1.104 1.638 1.051 3.634 0.617 5.485-1.415 6.027-5.664 10.101-10.652 13.33z" fill="#FDD0C1"/> <path d="m522.04 919.73c-3.591-0.057-6.991-0.052-10.381-1.414-4.293-1.725-8.068-5.029-9.709-9.423-1.267-3.394-1.195-7.36 0.483-10.6 2.269-4.384 6.51-6.805 11.047-8.189 4.091-0.199 7.433 0.075 11.071 2.261 5.341 3.21 7.478 8.382 8.955 14.092-0.485 1.967-0.954 3.968-1.86 5.793-2.127 4.282-5.29 6.03-9.606 7.48z" fill="#FDD0C1"/> <path d="m429.02 910.89c-1.228-0.025-1.887-0.398-2.957-0.941-0.586-0.969-0.963-1.269-0.963-2.444 0-2.802 1.892-4.715 3.801-6.505 1.43 0.056 2.136 0.367 3.379 0.996 0.522 0.828 0.97 1.203 0.963 2.216-0.017 2.74-2.407 4.909-4.223 6.678z" fill="#FDD0C1"/> <path d="m881.81 911.67c-20.205 0.048-38.378 5.022-56.822 13.01-5.837 2.528-11.498 6.186-17.591 7.969-8.832-1.736-23.095 1.088-32.297 2.117-28.471 3.187-56.776 6.343-84.82 12.326 0.118-0.801 2e-3 -0.338 0.48-1.349 11.186-7.363 114.78-35.565 132.23-37.157 19.366-1.766 39.687-0.105 58.82 3.084z" fill="#FDD0C1"/> <path d="m214.57 927.4c-5 0.24-10.926 2e-3 -15.572-1.985-2.256-0.965-3.744-1.991-4.678-4.285 0.152-1.143 0.041-1.503 0.805-2.44 3.012-3.693 10.273-4.184 14.653-4.701 4.019-0.349 9.064-0.087 12.88 1.274 2.747 0.98 4.672 2.214 5.861 4.913-0.125 1.186-7e-3 1.714-0.738 2.706-2.767 3.756-9.006 3.948-13.211 4.518z" fill="#FDD0C1"/> <path d="m325.88 934.98c-0.788-0.163-1.61-0.334-2.352-0.653-1.512-0.648-2.906-1.866-3.548-3.398-0.77-1.84-0.306-3.938 0.552-5.664 2.169-4.361 5.983-7.033 10.526-8.402 0.663 0.125 0.631 0.102 1.377 0.338 1.733 0.549 3.406 1.642 4.174 3.346 0.723 1.605 0.557 3.279-0.091 4.874-2.062 5.077-5.821 7.541-10.638 9.559z" fill="#FDD0C1"/> <path d="m161.16 1018.9c-0.328 14.27-0.557 28.57-1.623 42.8l-5.082 50.65c-2.571 20.78-5.973 41.44-10.199 61.94l-1.391 0.91c-0.92-0.57-1.835-1.13-2.779-1.65-4.436 1.49-9.374 11.54-11.31 15.49-6.59 13.46-10.033 28.09-11.013 42.99-0.181-0.16-0.366-0.32-0.542-0.48-2.877-2.74-4.849-9.79-7.218-13.34-5.505-8.27-26.212-24.71-36.608-25.82-1.7062 0.97-2.4169 1.77-2.9242 3.75-3.4791 13.56 5.8219 44.66 13.689 56.5 0.7611 1.15 1.3808 1.84 2.5531 2.55-0.332 0.03-0.6633 0.06-0.9959 0.07-3.4291 0.12-9.3742-3.59-12.814-4.8-5.7221-2.02-27.787-8.04-32.32-2.94-1.3043 1.47-1.511 3.16-1.2643 5.06 1.0902 8.36 8.7759 19.52 15.283 24.69 0.5305 0.43 0.6879 0.48 1.2222 0.74-3.125 2.56-20.224 1.74-24.908 1.3-0.2878-0.03-0.5718-0.09-0.8576-0.13l-1.9314 0.03c-10.672-5.96-24.015-45.77-28.13-57.61v-95.46c1.7796-0.43 10.965-11.32 12.477-13.5 1.6677 2.61 5.2353 6.68 8.1013 7.88l0.6398 1.18c1.5024 5.31 4.3933 10.58 6.5591 15.67 3.2655 7.67 6.229 15.5 9.2365 23.28 3.7102 9.59 7.1326 23.63 11.737 32.13-3.5942-24.95-5.1909-49.8-6.4099-74.95-0.4504-12.67-0.6028-25.34-0.4571-38.01 1.8479-14.14 1.0729-29.28 1.9985-43.58 2.5535-39.429 6.7004-80.365 17.219-118.57 12.227 36.309 23.051 72.753 29.411 110.61 2.3712 14.12 3.5302 28.32 5.2293 42.52 0.4566 9 0.7875 18 0.9924 27 0.0821 4.91-0.2529 10.14 0.205 15.01-1.1037 22.01-2.4232 43.69-5.409 65.54 0.7511-0.77 1.2223-1.72 1.5788-2.73 3.832-10.84 6.8175-22.07 10.461-33.01 3.332-9.99 7.539-19.99 10.21-30.17 1.328-1.36 21.379-43.65 22.296-47.14 4.461-3.76 19.863-38.45 25.088-46.4zm-87.642-25.461c-0.5924 9.941 2.3551 22.801 3.2411 33.041 1.3542 15.65 1.4463 31.59 1.4916 47.29 0.1137 18.17-0.1695 36.34-0.8495 54.5-0.2716 9.56-1.9919 26.05-0.1471 34.97l0.735-1.08c1.0835-50.69 5.2444-101.25-1.0407-151.84-0.5779-4.65-0.9571-13.022-3.4304-16.881z" fill="#009492"/> <path d="m347.24 981.88c-3.76-17.86-7.058-36.607-3.018-54.751 0.731 22.436 4.816 43.206 9.294 65.105 0.479 2.345 2.64 9.601 1.118 11.401-2.75-7.165-5.074-14.442-7.394-21.755z" fill="#743742"/> <path d="m424.78 993.77c-2.244 5.15-4.825 10.05-7.483 15-0.204-3.13 7.997-26.848 9.306-33.516 2.951-15.037 1.293-29.417 2.021-44.47l0.035-0.626c4.647 21.799 3.735 42.56-3.879 63.612z" fill="#743742"/> <path d="m690.28 947.09c28.044-5.983 56.349-9.139 84.82-12.326 9.202-1.029 23.465-3.853 32.297-2.117-0.57 1.588-0.834 1.809-0.296 3.468 3.393 2.245 9.921 2.795 14.016 3.438 36.04 5.665 69.03 2.94 104.78 4.388 9.127 0.874 18.522 0.412 27.7 0.587 4.255 0.015 9.199 0.545 13.368-0.131 18.916 0.904 38.097 0.243 57.037 0.073v110.3c-10.07 12.1-17.3 24.79-22.22 39.81-1.58 4.82-2.372 10.75-4.444 15.28-4.551-1.93-10.096-2.87-14.926-3.94-13.164-2.9-27.594-4.8-40.325-9.07-0.149-0.03-0.303-0.03-0.446-0.09-0.412-0.15-29.285-30.93-30.105-32.49-3.463-0.93-17.59-16.41-21.309-19.91-7.239-6.81-16.245-13.17-22.702-20.61 2.708 14.46 6.651 28.76 10.014 43.08-3.286 0.22-23.491-10.14-28.256-12.08-10.211-4.15-20.712-7.8-31.167-11.29-19.959-6.66-41.032-12.7-61.65-16.86-10.384-2.09-21.007-3.04-31.43-4.98-9.996-1.86-19.404-5.02-29.099-8.01-10.305-3.18-20.917-6.05-30.603-10.89-7.249-3.616-14.486-8.995-16.917-17.107-1.505-5.023-0.882-10.245 1.561-14.856 7.643-14.424 25.843-19.338 40.305-23.666zm91.506 21.27c-5.073 0.687-15.976 2.108-19.089 6.731-0.564 0.837-0.49 1.175-0.586 2.134 1.242 3.172 4.136 4.776 7.126 6.082 9.335 4.076 20.869 4.008 30.793 2.838 4.846-0.878 15.301-2.87 18.217-7.386 0.821-1.272 0.55-1.759 0.309-3.17-2.897-4.203-8.737-5.965-13.556-6.815-7.212-1.271-15.928-1.484-23.214-0.414zm-81.941 0.645c-7.55 0.745-20.573 1.39-26.002 7.141-0.433 1.244-0.72 1.552-0.051 2.799 2.028 3.784 10.029 6.127 13.924 7.054 13.082 3.115 29.565 4.568 42.936 2.911 5.633-0.458 22.488-2.237 26.014-6.867 0.894-1.175 0.617-1.733 0.45-3.116-2.593-4.275-8.559-6.11-13.167-7.246-11.329-2.793-32.534-4.753-44.104-2.676z" fill="#45B2F7"/> <path d="m292.39 954.72c-2.134 0.519-3.888 0.274-5.747-0.849-0.851-1.421-1.269-2.232-1.035-3.931 0.546-3.967 2.927-5.855 5.898-8.073 2.353-0.129 3.882-0.1 5.955 1.123 0.962 1.395 1.496 2.095 1.222 3.848-0.573 3.664-3.505 5.871-6.293 7.882z" fill="#FDD0C1"/> <path d="m565.72 964.77c-2.76-7.24-5.319-14.47-7.68-21.848 4.191 6.558 31.174 57.756 30.03 63.396-0.036 0.17-0.123 0.33-0.184 0.5-2.64 11.43-6.76 24.07-7.198 35.8-3.303 19.6 2.312 24.98 6.927 42.46l0.127 0.5c-0.219 0.32-0.431 0.65-0.663 0.96-3.506 4.74-11.42 6.39-16.915 7.14-4.422 0.6-10.332 1.23-14.035-1.79-9.656-7.86-14.003-36.71-15.449-48.82-0.899-14.7 0.409-29.45 3.881-43.756 10.529-2.889 21.06-5.95 31.252-9.885-3.827-8.1-7.095-16.218-10.093-24.657zm-0.505 116.24c-1.105 3.46-0.546 7.84-0.456 11.48l0.5 0.51 0.811-0.14c1.151-0.97 0.984-1.87 1.109-3.32 0.209-2.44-6e-3 -5.02-0.759-7.35l-1.205-1.18z" fill="#743742"/> <path d="m114.57 945.65c10.421 7.714 20.491 16.391 31.692 22.955 31.154 18.254 69.165 26.668 105.13 25.675 23.811-0.657 47.663-4.674 71.188-8.191 8.248-1.243 16.471-2.646 24.664-4.208 2.32 7.313 4.644 14.59 7.394 21.755l-0.101 0.62c-18.613 2.09-37.34 1.72-56.029 2.14-29.045 0.64-57.27 2.98-86.046-2.53-36.485-6.989-76.486-26.769-97.888-58.216z" fill="#BB7D74"/> <path d="m245.97 968.2c-2.018-0.288-2.495-0.276-4.137-1.596-0.37-1.514-0.513-2.361 0.232-3.803 1.725-3.339 4.381-4.842 7.821-5.93 1.97 0.442 2.75 0.915 3.941 2.53 0.029 0.638 0.083 1.274-0.1 1.898-0.962 3.281-4.909 5.465-7.757 6.901z" fill="#FDD0C1"/> <path d="m220.48 970.4c-0.738 0.233-1.535 0.514-2.304 0.599-1.675 0.185-2.29-0.195-3.564-1.2-0.128-0.623-0.273-1.225-0.223-1.867 0.156-2.002 1.935-3.501 3.268-4.809 2.121-0.2 3.499-0.309 5.491 0.509 1.159 1.387 1.161 1.282 1.065 3.08-0.908 1.797-2.103 2.56-3.733 3.688z" fill="#FDD0C1"/> <path d="m424.78 993.77c50.287 0.369 94.792-9.023 140.94-28.998 2.998 8.439 6.266 16.557 10.093 24.657-10.192 3.935-20.723 6.996-31.252 9.885-15.86 3.246-31.693 6.546-47.683 9.106-4.852 0.78-10.279 2.16-15.143 2.19-15.498 1.47-31.791 2.8-47.355 2.36-6.302-0.73-12.756-0.46-19.103-1.09 1.056-1.06 1.508-1.66 2.016-3.11 2.658-4.95 5.239-9.85 7.483-15z" fill="#BB7D74"/> <path d="m800.03 986.15c-9.924 1.17-21.458 1.238-30.793-2.838-2.99-1.306-5.884-2.91-7.126-6.082 0.096-0.959 0.022-1.297 0.586-2.134 3.113-4.623 14.016-6.044 19.089-6.731 7.286-1.07 16.002-0.857 23.214 0.414 4.819 0.85 10.659 2.612 13.556 6.815 0.241 1.411 0.512 1.898-0.309 3.17-2.916 4.516-13.371 6.508-18.217 7.386z" fill="#90E0F0"/> <path d="m730.65 988.91c-13.371 1.657-29.854 0.204-42.936-2.911-3.895-0.927-11.896-3.27-13.924-7.054-0.669-1.247-0.382-1.555 0.051-2.799 5.429-5.751 18.452-6.396 26.002-7.141 11.57-2.077 32.775-0.117 44.104 2.676 4.608 1.136 10.574 2.971 13.167 7.246 0.167 1.383 0.444 1.941-0.45 3.116-3.526 4.63-20.381 6.409-26.014 6.867z" fill="#90E0F0"/> <path d="m123.45 990.1c-3.505 0.048-9.828 0.75-12.628-1.56 0.952-1.446 2.018-1.55 3.603-2.172 3.172-0.122 9.2-0.929 11.707 1.293-0.48 1.625-1.235 1.645-2.682 2.439z" fill="#FDD0C1"/> <path d="m77.994 1162.2-0.735 1.08c-1.8448-8.92-0.1245-25.41 0.1471-34.97 0.68-18.16 0.9632-36.33 0.8495-54.5-0.0453-15.7-0.1374-31.64-1.4916-47.29-0.886-10.24-3.8335-23.1-3.2411-33.041 2.4733 3.859 2.8525 12.231 3.4304 16.881 6.2851 50.59 2.1242 101.15 1.0407 151.84z" fill="#182B52"/> <path d="m481.74 1010.6c4.864-0.03 10.291-1.41 15.143-2.19 15.99-2.56 31.823-5.86 47.683-9.106-3.472 14.306-4.78 29.056-3.881 43.756-0.773 0.85-1.611 1.13-2.731 1.24-7.14 0.74-60.108 1.72-64.372-0.01-0.473-0.19-1.269-1.08-1.693-1.44 2.975-10.83 6.499-21.53 9.851-32.25z" fill="#FAE6D3"/> <path d="m587.89 1006.8c5.094 3.13 11.746 28.85 16.601 35.54-3.478 2.56-16.703 2.13-21.183 1.42-0.988-0.16-1.768-0.67-2.616-1.16 0.438-11.73 4.558-24.37 7.198-35.8z" fill="#FAE6D3"/> <path d="m434.38 1013c15.564 0.44 31.857-0.89 47.355-2.36-3.352 10.72-6.876 21.42-9.851 32.25-1.637 7.35-2.89 16.95 1.343 23.72 1.035 1.65 2.986 4.13 4.98 4.59-2.808 1.62-7.041 5.38-10.401 4.57-2.193-0.53-3.755-2.31-6.048-2.19-0.428 0.71-0.858 1.94-1.7 2.1-1.241 0.23-25.038-2.02-26.887-2.64-2.231-3.8 0.618-23.53 0.617-29.34 1.099-10.05 0.59-20.59 0.592-30.7z" fill="#743742"/> <path d="m415.28 1011.9c6.347 0.63 12.801 0.36 19.103 1.09-2e-3 10.11 0.507 20.65-0.592 30.7-0.523 0.4-0.964 0.94-1.567 1.2-2.335 1.02-30.402 1.88-33.655 1.33-0.876-0.15-0.853-0.18-1.549-0.46l-0.759-1.49c6.106-6.75 13.422-23.8 19.019-32.37z" fill="#FAE6D3"/> <path d="m997.34 1109.9c2.072-4.53 2.864-10.46 4.444-15.28 4.92-15.02 12.15-27.71 22.22-39.81v224.14c-0.86 0.5-1.82 0.9-2.82 0.99-10.01 0.91-20.83 0.12-30.916 0.12l-65.032 0.01-113.13-0.01c-20.655 0-41.371 0.35-62.018-0.15-7.996 0.63-58.978 1.12-64.344-0.53-3.971-1.26-8.399-4.7-12.132-6.78-8.014-4.44-16.088-8.77-24.219-12.99-6.925-3.54-13.918-6.95-20.974-10.22-4.244-1.96-9.618-3.59-13.343-6.38l0.653-1.07c4.696 0.72 11.257-2 16.136-2.54 8.919-0.99 18.312-1.01 27.234-0.08 10.626 1.11 20.369 3.42 30.401 7.04 5.007 1.81 11.053 5.11 16.242 5.78l1.44-1.08c-1.335-1.42-2.388-4.43-3.346-6.26-3.444-6.59-7.003-13.49-12.268-18.84-6.451-6.54-16.819-7.13-22.58-14.32 3.309-1.56 5.783-5.82 8.92-7.93 2.04-1.37 3.447-1.65 5.804-1.21 0.591 3.74 1.26 7.08 3.463 10.28 5.082 7.38 13.572 12.35 20.404 17.99 8.064 6.65 15.934 14 22.623 22.05 5.173 6.23 12.144 21.41 16.85 25.22 1.08 0.98 1.589 1.28 3.036 1.48 5.948-0.89 21.534-12.07 28.517-15.1 4.857-2.1 13.352-3.26 16.979-6.88-4.577-0.33-9.984-7.53-12.888-10.81l2.563-1.14c1.55 1.16 2.907 1.76 4.892 1.42 1.138-0.2 1.754-0.65 2.508-1.48 0.504 0.14 0.694 0.21 1.269 0.23 2.2 0.08 3.583-1.31 5.015-2.78 1.408-0.08 1.389-0.29 2.414-1.29 2.835 0.51 7.385-2.08 10.087-3.22 0.707 0.56 1.437 1.11 2.017 1.81 2.394 2.87 1.232 7.86 0.893 11.27 0.825 0.3 1.372 0.51 2.261 0.53 3.829 0.07 8.35-1.29 12.205-1.78 7.72-1 16.07-1.39 23.84-0.87 8.253 0.54 24.29 6.07 30.842 4.97-7.505-2.3-44.443-42.62-49.524-50.88-3-2.45-5.667-6.62-7.911-9.84 0.81-8.08 5.995-34.73 4.542-40.56-4.598-3.13-13.918 14.46-18.394 14.91-4.218-3.2-22.265-29.06-24.329-34.02 0.217 0.21 0.636 0.63 0.916 0.82 3.297 2.22 30.95 10.97 37.528 13.55 7.865 3.08 15.878 6.12 23.513 9.74 5.347 2.54 11.021 6.36 16.638 8.08 0.653 0.2 1.195 0.1 1.854 0.01 0.073 0.13 0.135 0.27 0.22 0.39 1.548 2.23 32.263 18.95 37.31 22.55 5.011 3.58 11.976 10.99 17.723 12.37-7.543-6.85-25.691-57.27-28.797-68.68-7.148-21.5-11.779-44-17.247-65.97-3.363-14.32-7.306-28.62-10.014-43.08 6.457 7.44 15.463 13.8 22.702 20.61 3.719 3.5 17.846 18.98 21.309 19.91 0.82 1.56 29.693 32.34 30.105 32.49 0.143 0.06 0.297 0.06 0.446 0.09 0.615 1.7 17.078 24.53 18.276 25.31 1.004 4.16 3.807 8.7 5.664 12.62 3.192 6.74 6.303 13.56 8.739 20.62 3.385 9.81 6.714 31.19 10.206 37.93 1.148-14.41 1.809-28.68 3.916-43.02 1.529-10.41 4.251-20.6 5.78-31 1.671-2.41 2.079-6.62 2.67-9.45z" fill="#009492"/> <path d="m242.96 1033.5c-1.029 0.68-1.728 1.06-2.976 1.16-2.053 0.17-4.015 0-5.591-1.32 0.389-1.66 1.002-1.74 2.369-2.69 2.603 1.12 5.571 0.16 8.253 1.1 1.151 0.4 0.776 0.1 1.299 1.14-1.555 0.93-1.554 0.88-3.354 0.61z" fill="#FD9B6B"/> <path d="m580.69 1042.6c0.848 0.49 1.628 1 2.616 1.16 4.48 0.71 17.705 1.14 21.183-1.42 1.93 5.37 16.158 36.82 19.146 38.31 1.362 3.19 3.761 5.19 6.948 6.53 2.01 0.84 3.922 0.9 6.062 0.75l1.592-1.19c2.354 0.78 3.898 0.41 6.26-0.15 5.104-1.19 16.307-4.06 19.217-8.78 0.272-2.46-0.832-4.44-1.77-6.65-1.583-1.85-3.386-2.67-5.24-4.13-5.259-4.16-5.331-13.08-5.981-19.18 0.542 0.45 0.97 0.86 1.677 1.05 3.811 0.97 8.464 0.86 12.414 1.34l30.946 4c40.355 5.27 80.617 11.22 120.77 17.86 8.644 1.45 22.485 2.28 30.307 5.32 4.529 1.77 6.689 6.51 10.547 8.27-6.568 5.6-24.422 8.19-33.316 10.36-16.928 4.13-33.949 8.45-51.164 11.2-28.486 4.55-57.539 6.43-86.324 7.89-36.056 1.82-72.138 3.06-108.23 3.74-56.814 1.81-113.66 2.2-170.5 1.17-50.495-0.23-100.97-2.16-151.33-5.79-1.486-0.11-2.88-0.2-4.313-0.64 1.612-6.09 1.65-13.48 2.572-19.81 1.832-12.2 4.174-24.31 7.018-36.31-1.656 2.6-3.359 4.68-6.132 6.12-7.606 8.32-17.497 15.67-26.01 23.13-8.977 7.87-17.448 16.25-26.341 24.17-0.611 0.54-1.194 0.74-1.978 0.91-3.637 1.02-43.616 1.47-46.871 0.51l5.082-50.65 1.488 1.05c6.142-0.23 12.348-1.41 18.456-2.16 9.095-1.05 18.199-2.03 27.311-2.93 32.619-3.5 65.303-6.37 98.033-8.6 6.513-0.46 42.335-1.33 45.982-3.63-0.303 6.31-2.382 41.07 0.457 44.3 0.611 2.17 0.871 3.5 2.919 4.77 6.341 3.94 23.173 2.26 30.393 0.75 5.012-1.04 11.182-2.12 14.193-6.69 0.396-3.95-3.163-5.92-5.474-8.8-0.402-0.65-0.216-0.29-0.57-1.29-4.488-12.69-2.04-22.46 3.529-34.23l0.759 1.49c0.696 0.28 0.673 0.31 1.549 0.46 3.253 0.55 31.32-0.31 33.655-1.33 0.603-0.26 1.044-0.8 1.567-1.2 1e-3 5.81-2.848 25.54-0.617 29.34 0.053 1.83 0.269 3.48 1.266 5.06 1.898 3.01 5.665 4.37 8.984 5.14 9.991 2.32 24.537 3.24 33.507-2.43 2.278-1.44 3.717-2.71 4.318-5.34-0.45-2.02-1.561-2.89-3.039-4.27-1.994-0.46-3.945-2.94-4.98-4.59-4.233-6.77-2.98-16.37-1.343-23.72 0.424 0.36 1.22 1.25 1.693 1.44 4.264 1.73 57.232 0.75 64.372 0.01 1.12-0.11 1.958-0.39 2.731-1.24 1.446 12.11 5.793 40.96 15.449 48.82 3.703 3.02 9.613 2.39 14.035 1.79 5.495-0.75 13.409-2.4 16.915-7.14 0.232-0.31 0.444-0.64 0.663-0.96l-0.127-0.5c-4.615-17.48-10.23-22.86-6.927-42.46zm162.26 27.51c-1.902 1.14-2.788 1.39-3.805 3.41 0.47 1.21 0.48 1.52 1.742 2.07 1.905 0.84 4.377 0.63 6.379 0.3l1.365-0.98c1.881 0.16 1.86 0.19 3.397-0.9l0.416-1.3c-2.738-2.67-6.232-1.49-9.494-2.6z" fill="#FDD0C1"/> <path d="m201.33 1111.8c0.784-0.17 1.367-0.37 1.978-0.91 8.893-7.92 17.364-16.3 26.341-24.17 8.513-7.46 18.404-14.81 26.01-23.13 2.773-1.44 4.476-3.52 6.132-6.12-2.844 12-5.186 24.11-7.018 36.31-0.922 6.33-0.96 13.72-2.572 19.81-1.629 16.44-3.038 32.91-4.227 49.39-0.568 8.53 0.09 18.64-1.725 26.88-0.164-0.06-0.334-0.12-0.493-0.19-0.912-0.44-1.464-1.09-2.161-1.8-2.163 0.01-3.896 1.42-5.314 2.95-8.757 9.41-11.758 27.46-10.963 39.82 0.507 7.86 1.993 15.22 5.468 22.31l0.974 0.61c-7.419 2.84-16.409 2.03-24.146 4.72-3.614 1.26-18.095 10.57-20.179 9.86 8.273-4.92 23.419-38.37 26.648-48.28 1.444-4.44 2.958-9.67 0.712-14.05-1.586-1.1-2.265-1.32-4.233-1.21-13.832 0.75-31.273 11.28-40.899 21.03-3.868 3.92-6.896 8.55-10.67 12.45l-0.669 0.68c-0.112-8.56-1.56-16.78-2.221-25.26-0.329-0.25-12.318-33.57-13.053-36.66 2.97-1.08 7.193-8.74 9.222-11.45 7.199-9.61 15.395-19.01 23.489-27.89 5.206-5.71 20.92-20.21 23.569-25.7z" fill="#5C57C5"/> <path d="m95.742 1070.8c0.4405 0.28 0.6631 0.45 1.1847 0.65 2.9063 1.08 35.66-4.47 39.15-6.15-0.917 3.49-20.968 45.78-22.296 47.14-3.692 0.86-13.426 1.82-16.841 0.37-0.4579-4.87-0.1229-10.1-0.205-15.01-0.2049-9-0.5358-18-0.9924-27z" fill="#FDD0C1"/> <path d="m748.63 1074.9-1.365 0.98c-2.002 0.33-4.474 0.54-6.379-0.3-1.262-0.55-1.272-0.86-1.742-2.07 1.017-2.02 1.903-2.27 3.805-3.41 3.262 1.11 6.756-0.07 9.494 2.6l-0.416 1.3c-1.537 1.09-1.516 1.06-3.397 0.9z" fill="#FD9B6B"/> <path d="m433.17 1073c1.849 0.62 25.646 2.87 26.887 2.64 0.842-0.16 1.272-1.39 1.7-2.1 2.293-0.12 3.855 1.66 6.048 2.19 3.36 0.81 7.593-2.95 10.401-4.57 1.478 1.38 2.589 2.25 3.039 4.27-0.601 2.63-2.04 3.9-4.318 5.34-8.97 5.67-23.516 4.75-33.507 2.43-3.319-0.77-7.086-2.13-8.984-5.14-0.997-1.58-1.213-3.23-1.266-5.06z" fill="#6A2434"/> <path d="m636.4 1080c-0.115-1.42-0.409-2.22 0.302-3.48 0.896 1.8 1.856 3.23 3.157 4.76 1.987 0.24 4.198 0.11 6.166-0.3 1.495-0.31 2.087-0.7 2.944-1.92-0.223-1.12-0.648-2.55-0.358-3.67 0.276-1.07 0.709-1.28 1.546-1.86 0.71 1.01 1.439 1.99 2.196 2.97 0.724 0.15 1.442 0.46 2.163 0.26 3.372-0.95 5.66-2.54 7.43-5.56 0.938 2.21 2.042 4.19 1.77 6.65-2.91 4.72-14.113 7.59-19.217 8.78-2.362 0.56-3.906 0.93-6.26 0.15l-1.592 1.19c-2.14 0.15-4.052 0.09-6.062-0.75-3.187-1.34-5.586-3.34-6.948-6.53 3.741-0.26 8.886 3.05 12.36 1.15l0.403-1.84z" fill="#743742"/> <path d="m26.3 1082.4 0.3064 0.13c0.7368 0.33 1.3312 0.61 2.1514 0.65 3.5598 0.18 10.334-1.23 13.126-3.31-0.1457 12.67 0.0067 25.34 0.4571 38.01-4.9115 3.32-15.238 3.24-21.122 3.87l-0.6398-1.18c2.083-3.77 4.8485-32.15 5.7216-38.17z" fill="#FDD0C1"/> <path d="m390.66 1087.8c1.234-1.99 1.888-5.67 2.639-7.99 2.311 2.88 5.87 4.85 5.474 8.8-3.011 4.57-9.181 5.65-14.193 6.69-7.22 1.51-24.052 3.19-30.393-0.75-2.048-1.27-2.308-2.6-2.919-4.77 0.036-0.07 0.053-0.16 0.108-0.22 1.244-1.31 6.452 2.95 10.569 2.32 1.424-0.78 1.897-1.26 2.647-2.73 0.553-1.09 0.515-1.27 1.575-1.96 0.988 1.02 2.034 2.22 3.182 3.06 6.323 4.62 6.04-3.25 9.836-3.94 0.974 0.84 2.385 2.28 3.64 2.59 2.204 0.55 5.794-0.3 7.835-1.1z" fill="#6A2434"/> <path d="m566.07 1092.9-0.811 0.14-0.5-0.51c-0.09-3.64-0.649-8.02 0.456-11.48l1.205 1.18c0.753 2.33 0.968 4.91 0.759 7.35-0.125 1.45 0.042 2.35-1.109 3.32z" fill="#6A2434"/> <path d="m942.08 1096.8c12.731 4.27 27.161 6.17 40.325 9.07 4.83 1.07 10.375 2.01 14.926 3.94-0.591 2.83-0.999 7.04-2.67 9.45-3.567 2.42-26.986 4.09-32.535 3.44-0.689-0.08-1.15-0.3-1.77-0.59-1.198-0.78-17.661-23.61-18.276-25.31z" fill="#FAE6D3"/> <path d="m154.46 1112.4c3.255 0.96 43.234 0.51 46.871-0.51-2.649 5.49-18.363 19.99-23.569 25.7-8.094 8.88-16.29 18.28-23.489 27.89-2.029 2.71-6.252 10.37-9.222 11.45-0.414-0.57-0.591-1.88-0.79-2.59 4.226-20.5 7.628-41.16 10.199-61.94z" fill="#FAE6D3"/> <path d="m96.939 1112.8c3.415 1.45 13.149 0.49 16.841-0.37-2.671 10.18-6.878 20.18-10.21 30.17-3.6437 10.94-6.6292 22.17-10.461 33.01-0.3565 1.01-0.8277 1.96-1.5788 2.73 2.9858-21.85 4.3053-43.53 5.409-65.54z" fill="#FAE6D3"/> <path d="m21.218 1121.7c5.8847-0.63 16.211-0.55 21.122-3.87 1.219 25.15 2.8157 50 6.4099 74.95-4.6042-8.5-8.0266-22.54-11.737-32.13-3.0075-7.78-5.971-15.61-9.2365-23.28-2.1658-5.09-5.0567-10.36-6.5591-15.67z" fill="#FAE6D3"/> <path d="m750.5 1122.4c-0.918 0.95-1.5 1.24-2.814 1.5-2.077 0.41-3.447 0.37-5.23-0.8-0.371-1.8 0.081-2.02 0.98-3.56 2.857 0.25 5.604 0.36 8.239 1.57l0.177 0.97-1.352 0.32z" fill="#FDD0C1"/> <path d="m960.36 1122.2c0.62 0.29 1.081 0.51 1.77 0.59 5.549 0.65 28.968-1.02 32.535-3.44-1.529 10.4-4.251 20.59-5.78 31-2.107 14.34-2.768 28.61-3.916 43.02-3.492-6.74-6.821-28.12-10.206-37.93-2.436-7.06-5.547-13.88-8.739-20.62-1.857-3.92-4.66-8.46-5.664-12.62z" fill="#FDD0C1"/> <path d="m531.03 1152.1c-0.111 0.07-0.217 0.15-0.333 0.22-5.289 3.04-19.434 0.64-25.318-0.66-4.571-1.01-11.442-3.23-13.772-7.64-0.595-1.12-0.771-2.24-0.329-3.44 2.752-7.52 21.402-7.05 26.376-9.48 0.274-0.14 0.54-0.29 0.81-0.43 3.092 1.55 12.898 0.82 16.921 1.24 4.235 0.42 8.416 1.28 12.478 2.55 3.464 1.12 8.2 2.89 9.813 6.41 0.612 1.34 0.684 2.85 0.034 4.18-1.587 3.25-6.425 4.68-9.651 5.65-4.366 1.33-12.83 3.64-17.029 1.4z" fill="#FD9B6B"/> <path d="m894.78 1132.8c3.106 11.41 21.254 61.83 28.797 68.68-5.747-1.38-12.712-8.79-17.723-12.37-5.047-3.6-35.762-20.32-37.31-22.55-0.085-0.12-0.147-0.26-0.22-0.39 0.178-0.09 0.372-0.16 0.536-0.27 0.09-0.07 23.8-29.02 24.938-30.73 0.525-0.78 0.716-1.47 0.982-2.37z" fill="#FDD0C1"/> <path d="m683.7 1202.5c-2.357-0.44-3.764-0.16-5.804 1.21-3.137 2.11-5.611 6.37-8.92 7.93-0.408 0.03-0.58 0.07-1.026-0.04-8.44-2.12-39.417-23.69-44.362-30.45 0.843 0.4 1.494 0.72 2.424 0.88 4.791 0.85 10.126 0.65 15.055 1.38 3.89 0.57 7.968 2.19 11.876 1.85-4.737-5.91-6.99-23.97-8.021-31.92 0.705 0.81 19.331 14.56 20.206 14.93 2.836-2.13 9.78-17.89 11.295-21.87 3.845 15.79 9.572 30.6 9.666 47.18 0.018 3.1-0.093 6.6-2.389 8.92z" fill="#FB777C"/> <path d="m812.21 1168c4.476-0.45 13.796-18.04 18.394-14.91 1.453 5.83-3.732 32.48-4.542 40.56-1.003 5.38-1.898 10.78-2.684 16.19-1.894 6-3.891 11.87-6.679 17.53-1.634 3.31-4.823 7.23-5.755 10.66l0.495 0.41c-2.702 1.14-7.252 3.73-10.087 3.22-1.025 1-1.006 1.21-2.414 1.29-1.432 1.47-2.815 2.86-5.015 2.78-0.575-0.02-0.765-0.09-1.269-0.23-0.754 0.83-1.37 1.28-2.508 1.48-1.985 0.34-3.342-0.26-4.892-1.42l-2.563 1.14c-1.652 0.29-3.177-0.17-4.73-0.7-13.914-4.78-56.671-37.49-63.008-50.66 5.799 3.19 20.295 3.24 28.04 5.16 4.461 1.1 15.288 7.5 18.749 7.23 0.255-0.02 0.509-0.06 0.763-0.09-6.839-13.22-4.376-39.6-1.659-54.01 1.56 2.08 4.646 3.71 6.648 5.48 4.23 3.74 7.946 7.77 11.449 12.19 2.343 2.95 4.802 5.89 6.803 9.09 2.878 4.6 5.598 12.59 9.397 16.17 2.733-2.89 4.622-8.25 6.86-11.8 2.881-4.57 7.608-9.47 9.787-14.25 0.379-0.83 0.393-1.62 0.42-2.51z" fill="#9EABDC"/> <path d="m309.99 1197.7c-2.538-7.73-7.439-24.2-6.359-31.97 0.412-2.97 1.701-5.64 4.145-7.45 10.197-7.54 35.602-0.26 47.399 1.47l0.562 0.08c6.982 9.52 10.891 41.26 11.737 53.63l-0.676 2.05c-2.602 0.75-4.404-0.28-6.764-1.45-10.616 1.22-24.19 1.23-31.48 10.29-1.411 1.76-2.661 4.05-4.402 5.46 3.166 3.09 9.145 4.5 13.497 4.4 6.567-0.15 12.525-2.48 17.003-7.38 2.672-2.93 3.793-6.44 4.943-10.12 1.8 1.5 4.996 4.05 7.348 4.32 0.429 1.19 0.78 2.52 1.426 3.6-0.324 11.25-2.695 18.65-8.036 28.43-1.501 2.75-3.721 5.97-4.594 8.96 1.377 1.39 3.466 3.02 3.619 5.07 0.307 4.13-3.765 9.25-6.861 11.76-0.158 0.12-0.355 0.19-0.533 0.29-3.918 1.76-16.447 1.51-20.663 0.1-3.651 1.55-67.935 1.64-72.496-0.08-3.794 1.68-15.979 1.5-19.984 0.02 0.044-0.02 0.091-0.04 0.132-0.06 6.232-4.05 12.418-11.42 14.141-18.71 2.624-0.07 9.604-3.09 11.706-4.73 1.526-1.2 2.811-2.78 2.868-4.79 0.102-3.66-4.215-8.31-6.549-10.82-2.861-3.09-7.025-6.73-11.448-6.73-1.698 0-3.244 0.61-4.412 1.85-1.81 1.94-2.26 4.98-2.098 7.53 0.252 3.96 2.054 10.43 5.034 13.17-2.865 1.24-11.27-1.28-14.438-2.32l-0.974-0.61c-3.475-7.09-4.961-14.45-5.468-22.31-0.795-12.36 2.206-30.41 10.963-39.82 1.418-1.53 3.151-2.94 5.314-2.95 0.697 0.71 1.249 1.36 2.161 1.8 0.159 0.07 0.329 0.13 0.493 0.19 0.054 0.45 0.124 0.9 0.211 1.35 1.667 8.53 6.845 21.34 14.696 26.03 1.811 1.08 3.099 1.28 5.126 0.81 1.578-1.02 2.41-1.98 3.054-3.77 3.461-9.65-2.507-18.94-6.645-27.21-2.671-5.34-4.86-11.52-2.666-17.45 4.957-13.39 22.009-8.05 29.599-11.86 0.283-0.14 0.557-0.3 0.836-0.45-1.372 13.6-5.582 25.99-0.039 39.46 1.39 3.38 4.74 8.52 8.197 10 3.488-0.87 9.227-6.22 11.375-9.08zm13.24 55.32c-0.139 0.04-0.277 0.09-0.417 0.13-5.013 1.42-14.998-0.23-18.132 4.23 0.134 2.2 1.772 3.82 3.341 5.22 1.937 1.73 7.093 6.2 9.676 6.12 0.137-0.01 0.269-0.05 0.404-0.08 0.963-0.04 1.187-0.07 2.011-0.48 2.054-1.01 3.934-2.54 4.613-4.81 1.256-4.19 0.346-6.65-1.496-10.33zm-40.802-33.52c-3.406 2.8-7.461 5.39-8.673 9.85 0.431 4.32 2.888 8.98 6.322 11.69 0.801 0.64 1.534 0.89 2.503 1.16 1.442-0.86 1.876-1.85 2.6-3.28 3.716-1.93 9.596-9.79 11.73-13.33-4.845-1.7-7.563-4.89-13.035-5.81-0.484-0.08-0.964-0.19-1.447-0.28z" fill="#009492"/> <path d="m117.77 1232c0.98-14.9 4.423-29.53 11.013-42.99 1.936-3.95 6.874-14 11.31-15.49 0.944 0.52 1.859 1.08 2.779 1.65l1.391-0.91c0.199 0.71 0.376 2.02 0.79 2.59 0.735 3.09 12.724 36.41 13.053 36.66 0.661 8.48 2.109 16.7 2.221 25.26l0.669-0.68c3.774-3.9 6.802-8.53 10.67-12.45 9.626-9.75 27.067-20.28 40.899-21.03 1.968-0.11 2.647 0.11 4.233 1.21 2.246 4.38 0.732 9.61-0.712 14.05-3.229 9.91-18.375 43.36-26.648 48.28 2.084 0.71 16.565-8.6 20.179-9.86 7.737-2.69 16.727-1.88 24.146-4.72 3.168 1.04 11.573 3.56 14.438 2.32 1.113 1.72 2.027 3.52 3.837 4.58l1.062-0.06c-1.723 7.29-7.909 14.66-14.141 18.71-0.041 0.02-0.088 0.04-0.132 0.06-2.952 1.06-5.251 1.04-8.194-0.03-0.225 0.1-0.446 0.21-0.675 0.31-2.393 0.97-70.358 1.06-75.536 0.4-0.908-0.11-1.569-0.4-2.404-0.75-0.241 0.11-0.478 0.23-0.723 0.32-3.286 1.31-43.724 1.21-47.387-0.29-4.0253 1.81-36.205 1.5-40.139 0.02-0.2653 0.11-0.5281 0.22-0.7958 0.32-2.2835 0.86-3.9616 0.44-6.13-0.5l-1.0128-1c-0.5343-0.26-0.6917-0.31-1.2222-0.74-6.507-5.17-14.193-16.33-15.283-24.69-0.2467-1.9-0.04-3.59 1.2643-5.06 4.5329-5.1 26.598 0.92 32.32 2.94 3.4396 1.21 9.3847 4.92 12.814 4.8 0.3326-0.01 0.6639-0.04 0.9959-0.07-1.1723-0.71-1.792-1.4-2.5531-2.55-7.8668-11.84-17.168-42.94-13.689-56.5 0.5073-1.98 1.218-2.78 2.9242-3.75 10.396 1.11 31.103 17.55 36.608 25.82 2.369 3.55 4.341 10.6 7.218 13.34 0.176 0.16 0.361 0.32 0.542 0.48z" fill="#9EABDC"/> <path d="m368.37 1224.7c1.759 0.57 1.816 0.69 3.645 0 10.7-10.68 1.33-48.94 29.892-48.75 6.56 0.04 16.257 0.79 21.574 5.03 0.418 0.89 0.809 1.17 0.51 2.17-2.405 8.03-21.504 13.84-24.666 38.24-0.528 4.08-0.755 9.03 1.053 12.82 0.957 2.01 2.779 4.11 4.995 4.73 1.181 0.33 2.249 0.23 3.334-0.36 10.32-5.64 8.171-46.94 33.724-42.19 6.841 1.27 12.968 5.99 16.743 11.73 1.142 1.74 2.132 3.68 1.732 5.82-0.366 1.96-2.112 3.47-3.736 4.46-10.292 6.24-22.964 5.57-27.444 21.09-0.586 2.02-1.014 4.45 0.149 6.36 1.179 1.94 3.112 3.32 5.355 3.68 4.247 0.68 8.269-2.05 11.467-4.56 6.867-5.4 14.581-15.5 17.872-23.69 0.118 0.09 0.234 0.18 0.354 0.27 3.252 2.42 7.236 3.66 10.584 6.18 9.116 6.86 19.019 20.76 20.796 32.23 0.607 3.91 0.311 7.96-2.03 11.29-2.912 4.14-9.812 7.71-14.897 8.09-0.48 0.04-0.636-0.02-1.055-0.11-3.659 1.55-39.924 1.41-43.849 0.1 0.809-0.14 1.158-0.36 1.854-0.83 2.037-1.39 3.997-2.84 4.327-5.46 0.199-1.58-0.441-3.18-1.442-4.39-1.303-1.57-3.203-2.42-5.213-2.59-2.501-0.22-4.824 0.85-6.659 2.5-1.987 1.78-3.812 4.31-3.765 7.1 0.029 1.73 0.281 2.37 1.501 3.52-0.228 0.11-0.452 0.23-0.683 0.33-3.337 1.42-12.224 0.98-15.499-0.27 0.523-0.31 1.032-0.8 1.365-1.3 2.333-3.56 3.86-9.8 2.733-13.88-0.558-2.03-1.785-3.75-3.656-4.75-2.185-1.16-4.91-1.24-7.248-0.52-2.691 0.83-5.013 2.8-6.165 5.38-1.28 2.87-0.966 5.74 0.213 8.58 1.177 2.85 2.894 5.42 5.81 6.62-3.919 1.52-45.696 1.49-49.98-0.16 0.178-0.1 0.375-0.17 0.533-0.29 3.096-2.51 7.168-7.63 6.861-11.76-0.153-2.05-2.242-3.68-3.619-5.07 0.873-2.99 3.093-6.21 4.594-8.96 5.341-9.78 7.712-17.18 8.036-28.43zm4.453 31.69c-3.684 2.91-5.837 5.92-6.474 10.71-0.212 1.6-0.399 3.39 0.453 4.81 1.76 0.45 1.888 0.38 3.597-0.27 1.666-0.28 2.653-1.45 3.614-2.76 1.773-2.41 3.069-6.17 2.292-9.18-0.396-1.53-1.111-2.28-2.528-2.94-0.308-0.15-0.636-0.25-0.954-0.37z" fill="#5C57C5"/> <path d="m826.06 1193.6c2.244 3.22 4.911 7.39 7.911 9.84-2.239 2.77-6.258 5.01-9.518 6.43l-1.077-0.08c0.786-5.41 1.681-10.81 2.684-16.19z" fill="#FAE6D3"/> <path d="m823.38 1209.8 1.077 0.08c3.26-1.42 7.279-3.66 9.518-6.43 5.081 8.26 42.019 48.58 49.524 50.88-6.552 1.1-22.589-4.43-30.842-4.97-7.77-0.52-16.12-0.13-23.84 0.87-3.855 0.49-8.376 1.85-12.205 1.78-0.889-0.02-1.436-0.23-2.261-0.53 0.339-3.41 1.501-8.4-0.893-11.27-0.58-0.7-1.31-1.25-2.017-1.81l-0.495-0.41c0.932-3.43 4.121-7.35 5.755-10.66 2.788-5.66 4.785-11.53 6.679-17.53z" fill="#FDD0C1"/> <path d="m527.94 1217.9c-0.833 0.5-1.516 0.85-2.478 1.06-2.533 0.53-7.979 0.36-10.08-1.16-1.03-0.74-0.969-1.12-1.177-2.3l1.694-2.26c2.199 0.84 5.321 0.24 7.72 0.44 2.418 0.19 5.253 0.27 6.919 2.26-0.085 0.18-0.564 1.21-0.665 1.35-0.363 0.53-1.353 0.5-1.933 0.61z" fill="#FDD0C1"/> <path d="m360.04 1214.1-4.494 1.37c0.645 0.86 2.941 1.04 4.055 1.28-1.15 3.68-2.271 7.19-4.943 10.12-4.478 4.9-10.436 7.23-17.003 7.38-4.352 0.1-10.331-1.31-13.497-4.4 1.741-1.41 2.991-3.7 4.402-5.46 7.29-9.06 20.864-9.07 31.48-10.29z" fill="#9EABDC"/> <path d="m285.18 1239c-0.724 1.43-1.158 2.42-2.6 3.28-0.969-0.27-1.702-0.52-2.503-1.16-3.434-2.71-5.891-7.37-6.322-11.69 1.212-4.46 5.267-7.05 8.673-9.85 0.483 0.09 0.963 0.2 1.447 0.28 5.472 0.92 8.19 4.11 13.035 5.81-2.134 3.54-8.014 11.4-11.73 13.33z" fill="#FAE6D3"/> <path d="m0 1221.6c4.1156 11.84 17.458 51.65 28.13 57.61-0.344 0.15-0.7987 0.36-1.1773 0.46-3.8004 1.02-23.813 1-26.953-0.77v-57.3z" fill="#FDD0C1"/> <path d="m615.07 1243c-0.993 1.82-1.911 3.1-3.778 4.09-11.135 5.88-27.761 5.37-39.46 1.46-3.099-1.04-7.587-3.1-8.912-6.24-0.532-1.26-0.453-2.45 0.099-3.68 1.608-3.57 5.778-5.98 9.285-7.42 10.291-4.22 25.528-4.58 35.799-0.13 2.747 1.18 6.383 3.29 7.506 6.19-0.132 1.35-0.361 2.73-0.07 4.08 0.044 0.2 0.122 0.39 0.184 0.58l-0.653 1.07z" fill="#FDD0C1"/> <path d="m248.2 1255.9c-2.98-2.74-4.782-9.21-5.034-13.17-0.162-2.55 0.288-5.59 2.098-7.53 1.168-1.24 2.714-1.85 4.412-1.85 4.423 0 8.587 3.64 11.448 6.73 2.334 2.51 6.651 7.16 6.549 10.82-0.057 2.01-1.342 3.59-2.868 4.79-2.102 1.64-9.082 4.66-11.706 4.73l-1.062 0.06c-1.81-1.06-2.724-2.86-3.837-4.58z" fill="#FAE6D3"/> <path d="m318.1 1268.7c-0.135 0.03-0.267 0.07-0.404 0.08-2.583 0.08-7.739-4.39-9.676-6.12-1.569-1.4-3.207-3.02-3.341-5.22 3.134-4.46 13.119-2.81 18.132-4.23 0.14-0.04 0.278-0.09 0.417-0.13 1.842 3.68 2.752 6.14 1.496 10.33-0.679 2.27-2.559 3.8-4.613 4.81-0.824 0.41-1.048 0.44-2.011 0.48z" fill="#5C57C5"/> <path d="m370.4 1271.6c-1.709 0.65-1.837 0.72-3.597 0.27-0.852-1.42-0.665-3.21-0.453-4.81 0.637-4.79 2.79-7.8 6.474-10.71 0.318 0.12 0.646 0.22 0.954 0.37 1.417 0.66 2.132 1.41 2.528 2.94 0.777 3.01-0.519 6.77-2.292 9.18-0.961 1.31-1.948 2.48-3.614 2.76z" fill="#FAE6D3"/> <path d="m401.95 1279.3c-2.916-1.2-4.633-3.77-5.81-6.62-1.179-2.84-1.493-5.71-0.213-8.58 1.152-2.58 3.474-4.55 6.165-5.38 2.338-0.72 5.063-0.64 7.248 0.52 1.871 1 3.098 2.72 3.656 4.75 1.127 4.08-0.4 10.32-2.733 13.88-0.333 0.5-0.842 0.99-1.365 1.3-2.566 1.07-4.326 0.88-6.948 0.13z" fill="#FAE6D3"/> <path d="m425.08 1279.2c-1.22-1.15-1.472-1.79-1.501-3.52-0.047-2.79 1.778-5.32 3.765-7.1 1.835-1.65 4.158-2.72 6.659-2.5 2.01 0.17 3.91 1.02 5.213 2.59 1.001 1.21 1.641 2.81 1.442 4.39-0.33 2.62-2.29 4.07-4.327 5.46-0.696 0.47-1.045 0.69-1.854 0.83-3.142 1.01-6.311 1.07-9.397-0.15z" fill="#FAE6D3"/> <path d="m55.827 1278 1.0128 1c-0.3012 0.15-0.598 0.3-0.9035 0.43-3.5601 1.54-22.434 1.09-25.875-0.26 0.2858 0.04 0.5698 0.1 0.8576 0.13 4.6841 0.44 21.783 1.26 24.908-1.3z" fill="#57B4A9"/> </svg>